<?xml version="1.0" standalone="no"?>
<!DOCTYPE svg PUBLIC "-//W3C//DTD SVG 1.1//EN" "http://www.w3.org/Graphics/SVG/1.1/DTD/svg11.dtd" >
<svg xmlns="http://www.w3.org/2000/svg">
<defs>
<font id="SquareSerif-Book" horiz-adv-x="1120" >
  <font-face 
    font-family="Square Serif"
    font-weight="400"
    font-stretch="normal"
    units-per-em="2048"
    panose-1="2 6 5 2 2 2 5 2 4 4"
    ascent="1638"
    descent="-410"
    x-height="1001"
    cap-height="1366"
    bbox="-225 -512 2216 1862"
    underline-thickness="102"
    underline-position="-102"
    unicode-range="U+0020-U+FB02"
  />
<missing-glyph horiz-adv-x="1024" 
d="M102 0v1368h820v-1368h-820zM512 782l262 492h-524zM827 193v981l-262 -490zM197 193l262 491l-262 490v-981zM250 94h524l-262 492z" />
    <glyph glyph-name="uniE103" unicode="fi" horiz-adv-x="1234" 
d="M1004 1001v-882h167v-119h-462v119h170v764h-514v-764h174v-119h-467v119h168v764h-166v118h166q-4 195 73.5 285t266.5 107v-115q-125 -14 -172.5 -74.5t-42.5 -202.5h639zM1004 1366v-199h-125v199h125z" />
    <glyph glyph-name="uniE104" unicode="fl" horiz-adv-x="1234" 
d="M1004 1366v-1247h167v-119h-471v119h179v1128h-99q-195 0 -241 -10q-127 -29 -160 -109q-12 -31 -14 -127h215v-118h-215v-764h174v-119h-467v119h168v764h-166v118h166q4 104 13 146.5t38 81.5q80 111 276 133q41 4 246 4h191z" />
    <glyph glyph-name=".notdef" horiz-adv-x="1024" 
d="M102 0v1368h820v-1368h-820zM512 782l262 492h-524zM827 193v981l-262 -490zM197 193l262 491l-262 490v-981zM250 94h524l-262 492z" />
    <glyph glyph-name=".null" horiz-adv-x="0" 
 />
    <glyph glyph-name="nonmarkingreturn" horiz-adv-x="682" 
 />
    <glyph glyph-name="space" unicode=" " horiz-adv-x="512" 
 />
    <glyph glyph-name="exclam" unicode="!" horiz-adv-x="393" 
d="M262 209v-209h-133v209h133zM262 1366v-1016h-133v1016h133z" />
    <glyph glyph-name="quotedbl" unicode="&#x22;" horiz-adv-x="659" 
d="M221 819h-104l-21 547h146zM541 819h-105l-20 547h145z" />
    <glyph glyph-name="numbersign" unicode="#" 
d="M942 557l-16 -102h-174l-72 -455h-115l72 455h-221l-72 -455h-115l72 455h-172l16 102h172l41 250h-174l17 102h174l71 457h113l-72 -457h224l71 457h115l-74 -457h170l-16 -102h-168l-41 -250h174zM694 807h-223l-39 -250h221z" />
    <glyph glyph-name="dollar" unicode="$" 
d="M152 367h118q8 -121 92 -200t203 -79t201 79t82 193q0 127 -100 209q-37 29 -82 44.5t-170 43.5q-180 41 -260 121q-102 98 -103 248q0 86 40 164t112 129q78 55 207 72v188h112v-197q135 -18 201 -131v113h102v-324h-112q-14 109 -85 169.5t-181.5 60.5t-184.5 -68.5
t-74 -173.5q0 -106 80 -176q41 -37 117 -59q2 0 21.5 -4.5t63.5 -12.5t91 -18q158 -33 251 -138.5t93 -252.5q0 -205 -166 -322q-82 -57 -217 -76v-178h-115v191q-92 20 -137 47.5t-92 93.5v-123h-108v367z" />
    <glyph glyph-name="percent" unicode="%" horiz-adv-x="1540" 
d="M524 0h-110l606 1366h108zM1153 604q133 0 225 -92t92 -225q0 -129 -93 -221.5t-220 -92.5q-131 0 -224 93.5t-93 224.5q0 129 92 221t221 92zM1155 494q-84 0 -144.5 -59.5t-60.5 -143.5t60.5 -145.5t144.5 -61.5t144.5 59.5t60.5 143.5q0 86 -59.5 146.5t-145.5 60.5z
M383 1393q133 0 225 -92.5t92 -225.5q0 -129 -93 -221t-222 -92q-131 0 -224 93t-93 224q0 129 92 221.5t223 92.5zM383 1282q-84 0 -144.5 -59.5t-60.5 -143.5t61.5 -145.5t145.5 -61.5t144.5 60.5t60.5 142.5q0 88 -60.5 147.5t-146.5 59.5z" />
    <glyph glyph-name="ampersand" unicode="&#x26;" horiz-adv-x="1333" 
d="M578 760l305 -293l178 391h246v-119h-166l-170 -360l327 -318l-86 -88l-313 303q-55 -102 -87 -146t-75 -77q-113 -88 -260 -88q-170 0 -289.5 117t-119.5 280q0 160 133 283q43 43 188 127l-63 59q-123 115 -123 256q0 129 94 221.5t227 92.5t226.5 -91t93.5 -220
q0 -102 -63.5 -181t-202.5 -149zM807 367l-334 321q-147 -72 -209.5 -144.5t-62.5 -172.5q0 -117 83 -201t197 -84q139 0 224 100q41 50 102 181zM418 911l80 -73q125 61 176 117.5t51 129.5q0 82 -59.5 141.5t-141.5 59.5t-139 -56t-57 -138q0 -97 90 -181z" />
    <glyph glyph-name="quotesingle" unicode="'" horiz-adv-x="339" 
d="M221 819h-104l-21 547h146z" />
    <glyph glyph-name="parenleft" unicode="(" horiz-adv-x="608" 
d="M578 -254v-156q-231 125 -368.5 372t-137.5 542q0 408 262 710q117 133 244 193v-156q-168 -119 -266.5 -319.5t-98.5 -430t99.5 -435t265.5 -320.5z" />
    <glyph glyph-name="parenright" unicode=")" horiz-adv-x="608" 
d="M31 1251v156q231 -125 368.5 -372t137.5 -539q0 -410 -263 -713q-117 -133 -243 -193v156q170 119 267 320.5t97 431t-99 435t-265 318.5z" />
    <glyph glyph-name="asterisk" unicode="*" horiz-adv-x="956" 
d="M238 772l161 219l-264 82l33 98l256 -88v283h104v-283l256 88l35 -98l-260 -82l160 -207l-86 -67l-160 211l-149 -211z" />
    <glyph glyph-name="plus" unicode="+" 
d="M88 641v109h416v407h110v-407h416v-109h-416v-405h-110v405h-416z" />
    <glyph glyph-name="comma" unicode="," horiz-adv-x="366" 
d="M152 -170h-121l141 350h123z" />
    <glyph glyph-name="hyphen" unicode="-" horiz-adv-x="501" 
d="M502 457h-502v125h502v-125z" />
    <glyph glyph-name="period" unicode="." horiz-adv-x="366" 
d="M250 209v-209h-133v209h133z" />
    <glyph glyph-name="slash" unicode="/" horiz-adv-x="864" 
d="M659 1366h117l-729 -1739h-115z" />
    <glyph glyph-name="zero" unicode="0" 
d="M1022 887v-408q0 -227 -107 -354q-59 -70 -156 -113t-200 -43q-111 0 -213 49.5t-162 131.5q-88 119 -88 329v408q0 227 107 354q59 70 156.5 113t199.5 43q111 0 213 -48.5t162 -129.5q88 -123 88 -332zM229 887v-408q0 -178 68 -266q41 -53 112.5 -86t145.5 -33
q82 0 159 38t115 97q59 94 60 215v478q0 135 -72 229q-39 53 -112.5 87t-149.5 34q-80 0 -154.5 -37t-115.5 -96q-56 -86 -56 -252z" />
    <glyph glyph-name="one" unicode="1" 
d="M651 1366v-1247h180v-119h-493v119h180v1136h-264v111h397z" />
    <glyph glyph-name="two" unicode="2" 
d="M838 330h133v-330h-877v119l594 575q150 143 150 272.5t-87 217.5t-214 88q-82 0 -151 -40t-110 -112q-39 -66 -40 -182h-132q2 170 80 279q59 82 156.5 131t202.5 49q180 0 305 -124t125 -304q0 -102 -43 -182t-162 -193l-498 -475h568v211z" />
    <glyph glyph-name="three" unicode="3" 
d="M100 387h138q16 -113 71 -178q96 -115 236 -115q129 0 220 91t91 221q0 127 -96 216t-234 89q-31 0 -53 -2h-18v110q43 -2 69 -2q115 0 184.5 62.5t69.5 167.5q0 98 -64.5 164.5t-160.5 66.5q-94 0 -156.5 -58.5t-70.5 -154.5h-129q8 127 82 209q111 123 276 123
q150 0 251 -98.5t101 -241.5q0 -207 -182 -285q82 -35 123 -67q145 -117 145 -308q0 -176 -130 -302t-312 -126q-186 0 -313.5 119t-137.5 299z" />
    <glyph glyph-name="four" unicode="4" 
d="M1061 444v-110h-199v-215h180v-119h-493v119h180v215h-672v110l641 922h164v-922h199zM729 444v758l-520 -758h520z" />
    <glyph glyph-name="five" unicode="5" 
d="M74 371h143q31 -129 121 -203t217 -74q145 0 248.5 101.5t103.5 242.5q0 145 -102.5 245.5t-249.5 100.5q-176 0 -283 -141l-122 31l126 692h676v-119h-567l-84 -440q123 102 281 102q193 0 327.5 -135t134.5 -328q0 -201 -142 -339t-347 -138q-184 0 -313 108t-168 294z
" />
    <glyph glyph-name="six" unicode="6" 
d="M590 1366h151l-350 -514q109 61 213 61q176 0 306 -137t130 -323q0 -201 -138 -342.5t-335 -141.5q-203 0 -345 142.5t-142 343.5q0 158 96 299zM563.5 797q-143.5 0 -245 -101.5t-101.5 -244.5q0 -145 102.5 -251t243.5 -106q139 0 239.5 103.5t100.5 246.5
q0 150 -98 251.5t-241.5 101.5z" />
    <glyph glyph-name="seven" unicode="7" 
d="M172 1366h829v-129l-557 -1237h-151l571 1247h-559v-248h-133v367z" />
    <glyph glyph-name="eight" unicode="8" 
d="M727 760q129 -49 198.5 -145.5t69.5 -225.5q0 -174 -129 -297t-309 -123q-182 0 -308 120t-126 292q0 160 110 274q57 57 156 99q-193 96 -192 295q0 145 106.5 246.5t257.5 101.5q147 0 249.5 -99.5t102.5 -242.5q0 -193 -186 -295zM557 688q-123 0 -210 -87t-87 -208
q0 -123 88 -211t211 -88t211 86t88 207q0 125 -87 213t-214 88zM553 1272q-96 0 -165 -67.5t-69 -164t70 -165t166 -68.5t166 67.5t70 161.5q0 100 -69 168t-169 68z" />
    <glyph glyph-name="nine" unicode="9" 
d="M545 0h-168l350 500q-109 -57 -199 -58q-184 0 -319 138.5t-135 326.5q0 199 145.5 344.5t343.5 145.5q201 0 341 -143.5t140 -348.5q0 -158 -98 -303zM557 1272q-143 0 -244.5 -105.5t-101.5 -253.5q0 -145 103.5 -249.5t246.5 -104.5q141 0 243.5 103.5t102.5 246.5
q0 152 -101.5 257.5t-248.5 105.5z" />
    <glyph glyph-name="colon" unicode=":" horiz-adv-x="366" 
d="M250 209v-209h-133v209h133zM250 907v-209h-133v209h133z" />
    <glyph glyph-name="semicolon" unicode=";" horiz-adv-x="370" 
d="M152 -170h-121l141 350h123zM299 907v-209h-133v209h133z" />
    <glyph glyph-name="less" unicode="&#x3c;" horiz-adv-x="1024" 
d="M954 1153v-127l-751 -338l751 -338v-127l-886 410v110z" />
    <glyph glyph-name="equal" unicode="=" 
d="M88 764v108h942v-108h-942zM88 518v109h942v-109h-942z" />
    <glyph glyph-name="greater" unicode="&#x3e;" horiz-adv-x="1024" 
d="M70 223v127l751 338l-751 338v125l886 -408v-110z" />
    <glyph glyph-name="question" unicode="?" horiz-adv-x="968" 
d="M543 209v-209h-133v209h133zM543 344h-133q2 117 47 205t151 184q92 82 122 132t30 124q0 119 -86 206t-205 87q-70 0 -134.5 -34t-105.5 -91q-47 -70 -55 -174h-133q6 152 88 264q57 78 149.5 123t190.5 45q176 0 301 -125t125 -301q0 -98 -36 -162.5t-148 -169.5
q-86 -80 -124 -150.5t-44 -162.5z" />
    <glyph glyph-name="at" unicode="@" horiz-adv-x="1544" 
d="M940 272l10 84q-98 -104 -256 -104q-166 0 -269 108.5t-103 282.5q0 184 108.5 301t280.5 117q190 0 307 -158l18 137h189l-8 -90h-97l-76 -588h84q74 0 123 50q53 53 85 141t32 188q0 244 -168 403t-426 159q-254 0 -423 -169t-169 -419q0 -276 193 -469
q186 -184 487 -185q223 0 434 105l35 -86q-213 -106 -465 -107q-336 0 -551 203q-111 104 -172 247.5t-61 297.5q0 287 196.5 479.5t491.5 192.5q293 0 492.5 -186.5t199.5 -461.5q0 -152 -63.5 -276.5t-165.5 -173.5q-45 -23 -119 -23h-174zM709 969q-127 0 -209 -93.5
t-82 -238.5q0 -131 73.5 -212t192.5 -81q131 0 218 95.5t87 238.5q0 129 -77.5 210t-202.5 81z" />
    <glyph glyph-name="A" unicode="A" horiz-adv-x="1521" 
d="M1534 0h-502v119h178l-137 319h-631l-141 -319h172v-119h-487v119h170l495 1128h-182v119h358l537 -1247h170v-119zM1034 551l-274 659l-279 -659h553z" />
    <glyph glyph-name="B" unicode="B" horiz-adv-x="1206" 
d="M78 0v119h174v1124h-174v123h586q180 0 280 -102q90 -90 90 -230q0 -207 -186 -303q123 -45 189.5 -138t66.5 -218q0 -168 -111 -275q-102 -100 -295 -100h-620zM389 123h260q160 0 230 63q86 80 86 201q0 119 -84 197q-82 76 -248 75h-244v-536zM389 776h234
q129 0 198 55q84 68 84 181q0 106 -78 174q-66 57 -198 57h-240v-467z" />
    <glyph glyph-name="C" unicode="C" horiz-adv-x="1464" 
d="M1253 350h154q-92 -180 -258 -283.5t-367 -103.5q-299 0 -506.5 210t-207.5 513q0 297 208.5 507t505.5 210q274 0 478 -201v164h116v-336h-131q-166 236 -463 236q-242 0 -408.5 -168t-166.5 -412t167 -415t406 -171q143 0 266 65.5t207 184.5z" />
    <glyph glyph-name="D" unicode="D" horiz-adv-x="1439" 
d="M252 119v1128h-174v119h629q291 0 479 -201q186 -199 186 -483q0 -299 -215 -510q-174 -172 -448 -172h-631v119h174zM389 123h291q262 0 405 168q147 170 148 393q0 119 -48 233.5t-130 190.5q-141 135 -369 135h-297v-1120z" />
    <glyph glyph-name="E" unicode="E" 
d="M901 352h137v-352h-960v119h174v1128h-174v119h960v-352h-137v229h-512v-498h526v-112h-526v-510h512v229z" />
    <glyph glyph-name="F" unicode="F" horiz-adv-x="1075" 
d="M389 631v-512h174v-119h-485v119h174v1128h-174v119h964v-356h-137v233h-516v-500h520v-112h-520z" />
    <glyph glyph-name="G" unicode="G" horiz-adv-x="1607" 
d="M1479 637v-637h-117v303q-96 -164 -247.5 -252t-338.5 -88q-295 0 -501.5 211t-206.5 510q0 301 207.5 510t508.5 209q285 0 502 -217v180h117v-344h-146q-178 244 -469 244q-246 0 -413.5 -168t-167.5 -414q0 -244 168 -414t409 -170q268 0 437 203q72 84 110 211h-684
v123h832z" />
    <glyph glyph-name="H" unicode="H" horiz-adv-x="1456" 
d="M1067 745v502h-174v119h485v-119h-174v-1128h174v-119h-485v119h174v514h-678v-514h174v-119h-485v119h174v1128h-174v119h485v-119h-174v-502h678z" />
    <glyph glyph-name="I" unicode="I" horiz-adv-x="641" 
d="M389 1247v-1128h174v-119h-485v119h174v1128h-174v119h485v-119h-174z" />
    <glyph glyph-name="J" unicode="J" horiz-adv-x="970" 
d="M14 309h146q14 -96 74.5 -152.5t148.5 -56.5q111 0 182 95q45 61 45 194v858h-174v119h486v-119h-174v-887q0 -182 -99 -286q-106 -111 -268 -111q-90 0 -170 39t-127 107q-58 79 -70 200z" />
    <glyph glyph-name="K" unicode="K" horiz-adv-x="1302" 
d="M389 688v-571h174v-117h-485v117h174v1130h-174v119h485v-119h-174v-514l561 514h-153v119h493v-119h-164l-587 -534l624 -596h160v-117h-502v117h160z" />
    <glyph glyph-name="L" unicode="L" horiz-adv-x="993" 
d="M836 352h137v-352h-895v119h174v1128h-174v119h485v-119h-174v-1124h447v229z" />
    <glyph glyph-name="M" unicode="M" horiz-adv-x="1933" 
d="M1681 1247v-1128h174v-119h-485v119h174v1071l-557 -1190h-106l-500 1186v-1067h174v-119h-477v119h174v1128h-174v119h368l492 -1173l543 1173h374v-119h-174z" />
    <glyph glyph-name="N" unicode="N" horiz-adv-x="1583" 
d="M1346 1247v-1247h-142l-815 1141v-1022h174v-119h-485v119h174v1128h-174v119h313l817 -1149v1030h-174v119h486v-119h-174z" />
    <glyph glyph-name="O" unicode="O" horiz-adv-x="1572" 
d="M784 1403q303 0 511 -211t208 -516q0 -291 -212 -502t-505 -211q-297 0 -507.5 211t-210.5 508t210.5 509t505.5 212zM784 1266q-238 0 -407.5 -171t-169.5 -411q0 -242 170 -413t409 -171q236 0 407 170t171 406q0 248 -168 419t-412 171z" />
    <glyph glyph-name="P" unicode="P" horiz-adv-x="1169" 
d="M389 539v-420h174v-119h-485v119h174v1128h-174v119h579q201 0 327 -115.5t126 -298.5q0 -193 -149 -321q-111 -92 -289 -92h-283zM389 662h270q137 0 218 73q94 88 94 215q0 129 -88 211t-226 82h-268v-581z" />
    <glyph glyph-name="Q" unicode="Q" horiz-adv-x="1597" 
d="M1534 231h108v-280q-238 0 -440 141q-195 -129 -414 -129q-303 0 -511.5 209t-208.5 512q0 299 209.5 509t506.5 210t507 -211t210 -510q0 -301 -211 -508q129 -84 244 -98v155zM1184 264q178 172 178 414q0 246 -169 417t-413 171q-233 0 -403 -168t-170 -400
q0 -80 29 -168q156 51 294 52q221 0 416 -125q93 -60 238 -193zM1094 188q-174 152 -246 191q-156 90 -324 90q-127 0 -256 -51q76 -150 213 -234t305 -84q167 0 308 88z" />
    <glyph glyph-name="R" unicode="R" horiz-adv-x="1292" 
d="M389 1243v-1124h162v-119h-473v119h174v1128h-174v119h612q225 0 348 -123q131 -135 131 -321q0 -211 -159 -338q-98 -78 -252 -86l284 -379h181v-119h-265l-421 588h102q174 0 270 76q121 92 121 256q0 152 -110 249q-86 74 -238 74h-293z" />
    <glyph glyph-name="S" unicode="S" horiz-adv-x="1013" 
d="M88 0v371h129q12 -129 88 -200t203 -71q123 0 205 77t82 192q0 133 -101 200q-63 41 -215 78q-123 31 -177 53.5t-101 61.5q-123 104 -123 266q0 158 114.5 266.5t282.5 108.5q197 0 279 -154v117h116v-324h-131q-10 102 -78.5 163t-177.5 61q-117 0 -191.5 -65.5
t-74.5 -168.5q0 -147 127 -209q43 -23 246 -69q166 -39 255 -138.5t89 -244.5q0 -172 -120 -290t-296 -118q-199 0 -313 166v-129h-117z" />
    <glyph glyph-name="T" unicode="T" horiz-adv-x="1046" 
d="M594 1243v-1124h174v-119h-487v119h176v1124h-299v-244h-117v367h965v-367h-117v244h-295z" />
    <glyph glyph-name="U" unicode="U" horiz-adv-x="1341" 
d="M1116 1247v-823q0 -203 -125 -332t-321 -129q-211 0 -342 154q-102 123 -103 325v805h-174v119h475v-119h-164v-790q0 -172 82 -260q47 -53 97.5 -75t126.5 -22q158 0 245 117q66 86 66 240v790h-164v119h475v-119h-174z" />
    <glyph glyph-name="V" unicode="V" horiz-adv-x="1443" 
d="M1294 1247l-503 -1247h-144l-489 1247h-172v119h487v-119h-170l422 -1069l428 1069h-176v119h481v-119h-164z" />
    <glyph glyph-name="W" unicode="W" horiz-adv-x="1970" 
d="M1784 1247l-344 -1247h-148l-303 1096l-307 -1096h-143l-359 1247h-166v119h488v-119h-178l292 -1038l318 1157h108l322 -1153l285 1034h-183v119h492v-119h-174z" />
    <glyph glyph-name="X" unicode="X" horiz-adv-x="1329" 
d="M752 700l417 -581h160v-119h-489v113h174l-344 489l-342 -489h166v-113h-494v119h170l418 581l-391 547h-166v119h491v-113h-168l316 -452l311 452h-172v113h489v-119h-157z" />
    <glyph glyph-name="Y" unicode="Y" horiz-adv-x="1241" 
d="M698 459v-340h174v-119h-485v119h174v340l-411 788h-164v119h477v-119h-170l338 -657l319 657h-172v119h475v-119h-161z" />
    <glyph glyph-name="Z" unicode="Z" horiz-adv-x="1107" 
d="M1020 354v-354h-932v115l711 1128h-551v-231h-137v354h856v-111l-701 -1130h617v229h137z" />
    <glyph glyph-name="bracketleft" unicode="[" horiz-adv-x="608" 
d="M143 -399v1792h428v-123h-288v-1540h288v-129h-428z" />
    <glyph glyph-name="backslash" unicode="\" horiz-adv-x="925" 
d="M213 1366l727 -1739h-117l-727 1739h117z" />
    <glyph glyph-name="bracketright" unicode="]" horiz-adv-x="608" 
d="M465 1393v-1792h-428v123h289v1540h-289v129h428z" />
    <glyph glyph-name="asciicircum" unicode="^" horiz-adv-x="1024" 
d="M199 760h-140l369 608h166l371 -608h-142l-313 510z" />
    <glyph glyph-name="underscore" unicode="_" horiz-adv-x="1024" 
d="M0 -141h1024v-117h-1024v117z" />
    <glyph glyph-name="grave" unicode="`" horiz-adv-x="1024" 
d="M705 1233l-50 -96l-471 256l54 110z" />
    <glyph glyph-name="a" unicode="a" horiz-adv-x="1359" 
d="M1120 883v-764h168v-119h-293v211q-51 -80 -92 -119q-129 -119 -317 -119q-213 0 -366.5 155t-153.5 370q0 217 154.5 373.5t369.5 156.5q133 0 229 -56.5t176 -183.5v213h293v-118h-168zM596 905q-166 0 -283.5 -118.5t-117.5 -286.5q0 -166 117.5 -285t283.5 -119
q164 0 282.5 119t118.5 283q0 172 -115.5 289.5t-285.5 117.5z" />
    <glyph glyph-name="b" unicode="b" horiz-adv-x="1345" 
d="M356 1366v-584q143 246 404 246q213 0 366.5 -154.5t153.5 -371.5t-150.5 -373t-361.5 -156q-176 0 -303 109q-49 39 -109 133v-215h-293v119h168v1128h-168v119h293zM752 905q-166 0 -284 -118.5t-118 -286.5q0 -166 118 -285t284 -119q162 0 280.5 118t118.5 282
q0 172 -115.5 290.5t-283.5 118.5z" />
    <glyph glyph-name="c" unicode="c" horiz-adv-x="1130" 
d="M1049 1001v-294h-117q-57 94 -148.5 146t-193.5 52q-164 0 -279.5 -118.5t-115.5 -286.5t116.5 -286t280.5 -118q238 0 350 221h141q-61 -158 -194 -251t-297 -93q-217 0 -371.5 156t-154.5 373t152.5 371.5t365.5 154.5q199 0 352 -162v135h113z" />
    <glyph glyph-name="d" unicode="d" horiz-adv-x="1353" 
d="M1120 1366v-1247h168v-119h-293v217q-43 -70 -92 -119q-131 -125 -317 -125q-213 0 -366.5 156t-153.5 373q0 215 152.5 370.5t363.5 155.5q274 0 413 -252v471h-168v119h293zM598 905q-168 0 -285.5 -118.5t-117.5 -286.5q0 -166 117.5 -285t283.5 -119t284.5 119
t118.5 283q0 170 -116.5 288.5t-284.5 118.5z" />
    <glyph glyph-name="e" unicode="e" horiz-adv-x="1175" 
d="M936 285h133q-72 -147 -196.5 -229.5t-280.5 -82.5q-219 0 -372.5 154t-153.5 373q0 217 153.5 372.5t366.5 155.5q217 0 370.5 -153.5t153.5 -368.5q0 -25 -2 -45h-918q16 -147 101 -238q121 -133 299 -133q219 0 346 195zM190 563h801q-25 152 -138.5 250t-266.5 98
q-147 0 -259 -98t-137 -250z" />
    <glyph glyph-name="f" unicode="f" horiz-adv-x="622" 
d="M365 883v-764h174v-119h-467v119h168v764h-166v118h166q-4 195 73.5 285t266.5 107v-115q-125 -14 -172.5 -74.5t-42.5 -202.5h215v-118h-215z" />
    <glyph glyph-name="g" unicode="g" horiz-adv-x="1351" 
d="M135 -104h144q106 -180 329 -181q164 0 275.5 108.5t111.5 270.5v133q-53 -94 -106 -141q-129 -113 -305 -113q-211 0 -363.5 156t-152.5 371q0 217 153.5 372.5t366.5 155.5q274 0 411 -248v221h289v-118h-168v-764q0 -242 -147 -383q-150 -143 -369 -144
q-164 0 -290 82.5t-179 221.5zM598 905q-166 0 -283.5 -118.5t-117.5 -286.5q0 -166 117.5 -285t283.5 -119t283.5 117t117.5 283q0 174 -115.5 291.5t-285.5 117.5z" />
    <glyph glyph-name="h" unicode="h" horiz-adv-x="1282" 
d="M356 1366v-555q121 217 336 217q184 0 305 -156q86 -113 86 -319v-434h168v-119h-460v119h167v385q0 119 -12 175t-49 107q-86 119 -238 119q-147 0 -233 -112q-70 -92 -70 -256v-418h168v-119h-461v119h168v1128h-168v119h293z" />
    <glyph glyph-name="i" unicode="i" horiz-adv-x="595" 
d="M365 1001v-882h167v-119h-460v119h168v764h-168v118h293zM365 1366v-199h-125v199h125z" />
    <glyph glyph-name="j" unicode="j" horiz-adv-x="528" 
d="M358 1001v-1005q0 -174 -71.5 -262t-235.5 -117v121q100 14 148 88q35 51 34 225v832h-167v118h292zM358 1366v-199h-125v199h125z" />
    <glyph glyph-name="k" unicode="k" horiz-adv-x="1112" 
d="M356 1366v-809l371 336h-152v108h472v-118h-162l-377 -340l422 -424h180v-119h-492v119h142l-404 403v-403h154v-119h-447v119h168v1128h-168v119h293z" />
    <glyph glyph-name="l" unicode="l" horiz-adv-x="589" 
d="M356 1366v-1247h168v-119h-461v119h168v1128h-168v119h293z" />
    <glyph glyph-name="m" unicode="m" horiz-adv-x="1941" 
d="M356 1001v-172q113 199 314 199q229 0 342 -237q47 113 139 175t211 62q88 0 171 -40t136 -109q76 -100 76 -289v-471h168v-119h-463v119h170v442q0 96 -16.5 151.5t-57.5 102.5q-84 90 -207 90q-139 0 -223 -104q-66 -82 -65 -209v-473h170v-119h-463v119h168v446
q0 160 -68 242q-86 98 -213 98q-125 0 -202.5 -90t-77.5 -235v-461h167v-119h-460v119h168v764h-168v118h284z" />
    <glyph glyph-name="n" unicode="n" horiz-adv-x="1300" 
d="M365 1001v-178q106 205 333 205q88 0 172 -39t142 -108q90 -109 90 -295v-467h168v-119h-461v119h168v422q0 176 -78 262q-92 102 -233 102q-150 0 -240 -117q-61 -82 -61 -233v-436h167v-119h-460v119h168v764h-168v118h293z" />
    <glyph glyph-name="o" unicode="o" horiz-adv-x="1181" 
d="M590 1028q221 0 373.5 -153.5t152.5 -376.5q0 -215 -155.5 -370t-370.5 -155q-217 0 -370.5 155t-153.5 372t154.5 372.5t369.5 155.5zM590 905q-162 0 -278.5 -118.5t-116.5 -284.5q0 -168 116.5 -287t280.5 -119q162 0 278.5 118t116.5 282q0 172 -114.5 290.5
t-282.5 118.5z" />
    <glyph glyph-name="p" unicode="p" horiz-adv-x="1353" 
d="M356 1001v-221q143 248 412 248q213 0 365.5 -155.5t152.5 -372.5t-149.5 -372t-360.5 -155q-201 0 -336 131q-39 37 -84 113v-469h168v-121h-461v121h168v1135h-168v118h293zM756 905q-166 0 -284 -118.5t-118 -286.5q0 -166 118 -285t284 -119q164 0 282.5 118
t118.5 282q0 172 -116.5 290.5t-284.5 118.5z" />
    <glyph glyph-name="q" unicode="q" horiz-adv-x="1351" 
d="M995 1001h293v-118h-168v-1135h168v-121h-463v121h170v469q-45 -76 -84 -113q-137 -131 -336 -131q-211 0 -360 156t-149 373q0 219 151.5 372.5t366.5 153.5q268 0 411 -248v221zM594 905q-164 0 -281.5 -117.5t-117.5 -281.5q0 -170 116.5 -290t284.5 -120
q164 0 282.5 119t118.5 285q0 168 -118.5 286.5t-284.5 118.5z" />
    <glyph glyph-name="r" unicode="r" horiz-adv-x="724" 
d="M358 1001v-202q74 201 330 211v-127q-156 -12 -239.5 -100.5t-83.5 -239.5v-424h167v-119h-460v119h168v764h-168v118h286z" />
    <glyph glyph-name="s" unicode="s" horiz-adv-x="872" 
d="M731 1001v-249h-125q-18 174 -190 174q-84 0 -142.5 -50.5t-58.5 -121.5q0 -82 74 -129q47 -31 151 -52q166 -35 240 -79q115 -76 115 -218q0 -129 -98.5 -216t-243.5 -87q-176 0 -273 148v-121h-102v295h127q31 -219 231 -219q96 0 161 55t65 137q0 86 -64 129
q-39 29 -168 58q-166 35 -237 84q-111 72 -111 209q0 121 90 200.5t225 79.5q147 0 232 -110v83h102z" />
    <glyph glyph-name="t" unicode="t" horiz-adv-x="628" 
d="M358 883v-764h238v-119h-363v883h-194v118h194v365h125v-365h222v-118h-222z" />
    <glyph glyph-name="u" unicode="u" horiz-adv-x="1290" 
d="M1053 1001v-882h168v-119h-287v166q-51 -90 -142.5 -141.5t-199.5 -51.5q-170 0 -281.5 118t-111.5 298v494h-168v118h293v-565q0 -164 86 -250q86 -90 213 -90q143 0 237 115q68 78 68 221v451h-170v118h295z" />
    <glyph glyph-name="v" unicode="v" horiz-adv-x="1155" 
d="M1016 883l-367 -883h-141l-358 883h-170v118h460v-118h-151l291 -731l301 731h-162v118h457v-118h-160z" />
    <glyph glyph-name="w" unicode="w" horiz-adv-x="1656" 
d="M1509 883l-319 -883h-131l-223 692l-254 -692h-129l-306 883h-167v118h454v-118h-158l252 -719l258 741h105l235 -733l256 711h-163v118h458v-118h-168z" />
    <glyph glyph-name="x" unicode="x" horiz-adv-x="1097" 
d="M631 504l289 -385h165v-119h-456v109h133l-215 305l-213 -305h133v-109h-453v119h162l287 385l-289 379h-156v118h449v-102h-137l217 -305l215 305h-146v102h451v-118h-154z" />
    <glyph glyph-name="y" unicode="y" horiz-adv-x="1138" 
d="M999 883l-477 -1143h164v-119h-463v119h168l103 252l-353 891h-161v118h458v-118h-157l280 -731l303 731h-157v118h452v-118h-160z" />
    <glyph glyph-name="z" unicode="z" horiz-adv-x="907" 
d="M715 305h112v-305h-761v106l575 777h-432v-191h-113v309h703v-114l-561 -768h477v186z" />
    <glyph glyph-name="braceleft" unicode="{" horiz-adv-x="608" 
d="M31 436v121q63 18 89.5 60t26.5 126v344q0 150 43 220q49 86 195 86h170v-117h-61q-123 0 -166 -41t-43 -156v-344q0 -100 -28 -152.5t-97 -84.5q70 -35 97.5 -87.5t27.5 -152.5v-344q0 -115 43 -156t166 -41q35 0 61 2v-118h-170q-145 0 -195 86q-43 72 -43 219v344
q0 84 -26.5 126t-89.5 60z" />
    <glyph glyph-name="bar" unicode="|" horiz-adv-x="1024" 
d="M449 1366h126v-1708h-126v1708z" />
    <glyph glyph-name="braceright" unicode="}" horiz-adv-x="608" 
d="M575 557v-121q-63 -18 -89.5 -60t-26.5 -126v-344q0 -147 -43 -219q-49 -86 -195 -86h-170v116h62q123 0 166 41t43 156v344q0 100 27.5 152.5t96.5 85.5q-70 35 -97 87t-27 152v344q0 115 -43 156t-166 41q-35 0 -62 -2v119h170q145 0 195 -86q43 -70 43 -220v-344
q0 -84 26.5 -126t89.5 -60z" />
    <glyph glyph-name="asciitilde" unicode="~" horiz-adv-x="1366" 
d="M270 1202l-77 49q63 125 124.5 176.5t149.5 51.5q78 0 233 -74q141 -70 203 -70q59 0 101.5 33t91.5 115l80 -47q-113 -221 -287 -222q-47 0 -99.5 18.5t-187.5 82.5q-92 43 -143 43q-105 0 -189 -156z" />
    <glyph glyph-name="uni00A0" unicode="&#xa0;" horiz-adv-x="512" 
 />
    <glyph glyph-name="exclamdown" unicode="&#xa1;" horiz-adv-x="393" 
d="M129 793v208h133v-208h-133zM129 -362v1015h133v-1015h-133z" />
    <glyph glyph-name="cent" unicode="&#xa2;" 
d="M825 506h144q-86 -205 -328 -252v-178h-111v182q-172 25 -277.5 140.5t-105.5 279.5t106.5 281.5t276.5 144.5v182h111v-180q135 -27 215 -121v107h90v-244h-117q-84 131 -245 131q-131 0 -219.5 -86t-88.5 -213t91.5 -216t220.5 -89q137 0 237 131z" />
    <glyph glyph-name="sterling" unicode="&#xa3;" 
d="M930 459h123q14 -39 14 -86q0 -170 -127 -287q-96 -86 -270 -86h-539v113h205q104 83 104 221q0 76 -33.5 140.5t-123.5 160.5h-232v113h150q-61 102 -62 217q0 180 119 304t291 124t289 -158v131h125v-332h-125q-18 109 -93 174.5t-180 65.5q-121 0 -202.5 -91
t-81.5 -227q0 -117 73 -208h432v-113h-346q82 -92 110 -153.5t28 -139.5q0 -129 -99 -229h174q152 0 221 77q70 76 70 195q0 41 -14 74z" />
    <glyph glyph-name="currency" unicode="&#xa4;" 
d="M897 385l92 -92l-69 -70l-93 92q-121 -96 -268 -96q-143 0 -268 94l-92 -92l-70 70l92 94q-88 121 -88 262q0 143 94 268l-98 97l72 71l96 -98q123 90 264 90q139 0 262 -90l97 98l69 -69l-96 -99q94 -121 94 -264q0 -145 -90 -266zM559 954q-125 0 -213 -90t-88 -217
t89 -217t214 -90q123 0 212 90t89 213q0 131 -88 221t-215 90z" />
    <glyph glyph-name="yen" unicode="&#xa5;" 
d="M637 457v-338h172v-119h-477v119h172v338h-330v112h279l-107 230h-240v112h189l-156 336h-125v119h371v-119h-104l290 -657l275 657h-111v119h373v-119h-125l-147 -336h180v-112h-230l-102 -230h264v-112h-311z" />
    <glyph glyph-name="brokenbar" unicode="&#xa6;" horiz-adv-x="1024" 
d="M449 1366h126v-678h-126v678zM449 313h126v-655h-126v655z" />
    <glyph glyph-name="section" unicode="&#xa7;" 
d="M166 -47l135 -2q0 -115 70.5 -177.5t199.5 -62.5q113 0 184.5 62.5t71.5 160.5q0 111 -94 172q-59 37 -192 68q-334 76 -334 330q0 135 104 229q53 45 138 68q-111 51 -161 118.5t-50 165.5q0 135 97 225.5t245 90.5q174 0 280 -113q59 -63 66 -164l-125 2
q-8 72 -66.5 116t-146.5 44q-94 0 -156.5 -57.5t-62.5 -143.5q0 -82 57 -138t188 -101q141 -49 193 -88q135 -96 135 -252q0 -96 -54 -169t-153 -108q219 -80 219 -295q0 -152 -108.5 -246t-282.5 -94q-182 0 -289.5 96.5t-107.5 262.5zM573 723q-100 0 -170.5 -63.5
t-70.5 -151.5t71.5 -151.5t172 -63.5t171 61.5t70.5 147.5q0 92 -71 156.5t-173 64.5z" />
    <glyph glyph-name="dieresis" unicode="&#xa8;" horiz-adv-x="1024" 
d="M696 1423v-237h-125v237h125zM453 1423v-237h-125v237h125z" />
    <glyph glyph-name="copyright" unicode="&#xa9;" horiz-adv-x="1615" 
d="M1092 510h100q-53 -109 -148.5 -169t-212.5 -60q-170 0 -288.5 119.5t-118.5 291.5q0 168 120 288t287 120q150 0 261 -105v84h79v-200h-84q-92 129 -256 129q-131 0 -223 -92.5t-92 -223.5q0 -135 91 -228t224 -93q165 0 261 139zM819 1397q287 0 495 -211t208 -504
q0 -295 -209 -504t-504 -209q-293 0 -503 210t-210 503q0 299 210 507t513 208zM817 1327q-268 0 -455.5 -187.5t-187.5 -457.5q0 -266 186.5 -454.5t448.5 -188.5t448.5 189.5t186.5 455.5q0 262 -185.5 452.5t-441.5 190.5z" />
    <glyph glyph-name="ordfeminine" unicode="&#xaa;" horiz-adv-x="747" 
d="M705 688v-76h-662v76h662zM616 1290v-395h89v-76h-168v96q-82 -111 -211 -110q-117 0 -200 84t-83 202.5t84 203.5t201 85q125 0 209 -110v96h168v-76h-89zM332 1303q-86 0 -146.5 -61.5t-60.5 -149.5q0 -86 60.5 -147.5t146.5 -61.5q84 0 145.5 62.5t61.5 146.5
q0 88 -60.5 149.5t-146.5 61.5z" />
    <glyph glyph-name="guillemotleft" unicode="&#xab;" horiz-adv-x="643" 
d="M297 152l-221 329v76l221 328l29 -109l-164 -260l164 -262zM526 180l-209 301v74l209 307l29 -110l-149 -238l149 -233z" />
    <glyph glyph-name="logicalnot" unicode="&#xac;" horiz-adv-x="1024" 
d="M827 0v428h-759v117h886v-545h-127z" />
    <glyph glyph-name="uni00AD" unicode="&#xad;" horiz-adv-x="501" 
d="M502 457h-502v125h502v-125z" />
    <glyph glyph-name="registered" unicode="&#xae;" horiz-adv-x="1615" 
d="M670 997v-616h90v-80h-279v80h99v618h-99v80h350q125 0 201 -70.5t76 -185.5q0 -100 -63.5 -167.5t-161.5 -75.5l149 -199h105v-80h-160l-246 342h72q100 0 156.5 48t56.5 132q0 80 -60 135q-45 39 -129 39h-157zM819 1397q287 0 495 -211t208 -504q0 -295 -209 -504
t-504 -209q-293 0 -503 210t-210 503q0 299 210 507t513 208zM817 1327q-268 0 -455.5 -187.5t-187.5 -457.5q0 -266 186.5 -454.5t448.5 -188.5t448.5 189.5t186.5 455.5q0 262 -185.5 452.5t-441.5 190.5z" />
    <glyph glyph-name="macron" unicode="&#xaf;" horiz-adv-x="1024" 
d="M819 1346v-107h-612v107h612z" />
    <glyph glyph-name="degree" unicode="&#xb0;" horiz-adv-x="759" 
d="M379 1382q117 0 200 -80.5t83 -195.5t-83 -197t-200 -82q-119 0 -201 82t-82 199q0 113 84 193.5t199 80.5zM379 1294q-78 0 -135.5 -55t-57.5 -131q0 -80 56.5 -136.5t136.5 -56.5t136 56.5t56 134.5t-56 133t-136 55z" />
    <glyph glyph-name="plusminus" unicode="&#xb1;" 
d="M88 641v109h416v407h110v-407h416v-109h-416v-405h-110v405h-416zM88 29v108h942v-108h-942z" />
    <glyph glyph-name="uni00B2" unicode="&#xb2;" horiz-adv-x="729" 
d="M528 754h97v-207h-557v80l370 340q90 82 90 155.5t-52 123.5t-128 50q-102 0 -155 -86q-23 -39 -25 -110h-94q2 111 51 176q39 49 100.5 78.5t126.5 29.5q115 0 195 -75.5t80 -184.5q0 -61 -28 -110t-101 -115l-295 -268h325v123z" />
    <glyph glyph-name="uni00B3" unicode="&#xb3;" horiz-adv-x="729" 
d="M72 788h100q10 -82 59.5 -128t124.5 -46q78 0 132.5 52.5t54.5 126t-57.5 124t-141.5 50.5q-16 0 -33 -2l-18 -2v79h49q70 0 111 35t41 94q0 55 -38 92t-95.5 37t-94.5 -34.5t-41 -91.5h-92q4 94 68.5 152t160.5 58q94 0 160 -60t66 -148q0 -119 -103 -168
q72 -29 114 -87.5t42 -134.5q0 -106 -83 -182t-198 -76q-121 0 -199.5 71.5t-88.5 188.5z" />
    <glyph glyph-name="acute" unicode="&#xb4;" horiz-adv-x="1024" 
d="M362 1141l-45 94l469 266l58 -110z" />
    <glyph glyph-name="mu" unicode="&#xb5;" 
d="M152 -342v1325h127v-563q0 -111 17 -170.5t64 -104.5q74 -74 191 -73q129 0 213 102q76 98 76 266v543h127v-983h-127v186q-92 -213 -293 -213q-168 0 -268 156v-471h-127z" />
    <glyph glyph-name="mu" unicode="&#x3bc;" 
d="M152 -342v1325h127v-563q0 -111 17 -170.5t64 -104.5q74 -74 191 -73q129 0 213 102q76 98 76 266v543h127v-983h-127v186q-92 -213 -293 -213q-168 0 -268 156v-471h-127z" />
    <glyph glyph-name="paragraph" unicode="&#xb6;" 
d="M1067 1366v-119h-162v-1501h162v-119h-285v1616h-164v-1616h-296v119h174v834h-11q-197 0 -309 110q-121 121 -121 285q0 172 125 281.5t320 109.5h567z" />
    <glyph glyph-name="periodcentered" unicode="&#xb7;" horiz-adv-x="364" 
d="M250 623v-209h-133v209h133z" />
    <glyph glyph-name="cedilla" unicode="&#xb8;" horiz-adv-x="1024" 
d="M582 0l-50 -170q33 12 58 12q59 0 101 -45t42 -110q0 -72 -48 -120t-118 -48q-135 0 -161 141h88q23 -53 75 -53q33 0 54.5 22.5t21.5 55.5q0 35 -22.5 58.5t-57.5 23.5q-41 0 -69 -37l-72 26l68 244h90z" />
    <glyph glyph-name="uni00B9" unicode="&#xb9;" horiz-adv-x="729" 
d="M428 1366v-735h113v-84h-320v84h111v655h-164v80h260z" />
    <glyph glyph-name="ordmasculine" unicode="&#xba;" horiz-adv-x="747" 
d="M373 1378q121 0 203.5 -83t82.5 -203q0 -117 -85 -201t-201.5 -84t-200.5 84t-84 201q0 119 84 202.5t201 83.5zM373 1300q-82 0 -142.5 -61t-60.5 -145q0 -86 59.5 -147.5t143.5 -61.5t144.5 60.5t60.5 144.5q0 88 -59.5 149t-145.5 61zM705 688v-76h-662v76h662z" />
    <glyph glyph-name="guillemotright" unicode="&#xbb;" horiz-adv-x="643" 
d="M346 152l-27 102l162 262l-162 260l27 109l221 -328v-76zM117 180l-29 101l150 233l-150 238l29 110l209 -307v-74z" />
    <glyph glyph-name="onequarter" unicode="&#xbc;" horiz-adv-x="1708" 
d="M428 1366v-735h113v-84h-320v84h111v655h-164v80h260zM600 0h-96l606 1366h94zM1663 297v-80h-123v-133h111v-84h-320v84h113v133h-418v80l401 522h113v-522h123zM1444 297v399l-303 -399h303z" />
    <glyph glyph-name="onehalf" unicode="&#xbd;" horiz-adv-x="1708" 
d="M428 1366v-735h113v-84h-320v84h111v655h-164v80h260zM600 0h-96l606 1366h94zM1509 207h97v-207h-557v80l370 340q90 82 90 155.5t-52 124t-128 50.5q-102 0 -155 -86q-23 -39 -25 -111h-94q2 111 51 176q39 49 100.5 79t126.5 30q115 0 195 -76t80 -184
q0 -61 -28 -110.5t-101 -115.5l-295 -268h325v123z" />
    <glyph glyph-name="threequarters" unicode="&#xbe;" horiz-adv-x="1708" 
d="M72 788h100q10 -82 59.5 -128t124.5 -46q78 0 132.5 52.5t54.5 126t-57.5 124t-141.5 50.5q-16 0 -33 -2l-18 -2v79h49q70 0 111 35t41 94q0 55 -38 92t-95.5 37t-94.5 -34.5t-41 -91.5h-92q4 94 68.5 152t160.5 58q94 0 160 -60t66 -148q0 -119 -103 -168
q72 -29 114 -87.5t42 -134.5q0 -106 -83 -182t-198 -76q-121 0 -199.5 71.5t-88.5 188.5zM602 0h-98l606 1366h96zM1663 297v-80h-123v-133h111v-84h-320v84h113v133h-418v80l401 522h113v-522h123zM1444 297v399l-303 -399h303z" />
    <glyph glyph-name="questiondown" unicode="&#xbf;" horiz-adv-x="968" 
d="M426 793v208h133v-208h-133zM426 659h135q-4 -119 -48 -206.5t-148 -182.5q-92 -84 -122 -134t-30 -120q0 -121 86 -208t205 -87q70 0 133 34t104 91q47 70 54 174h135q-8 -188 -129 -310t-299 -122q-176 0 -301 126t-125 302q0 94 35.5 159t148.5 171q86 80 124 150.5
t42 162.5z" />
    <glyph glyph-name="Agrave" unicode="&#xc0;" horiz-adv-x="1521" 
d="M1534 0h-502v119h178l-137 319h-631l-141 -319h172v-119h-487v119h170l495 1128h-182v119h358l537 -1247h170v-119zM1034 551l-274 659l-279 -659h553zM827 1497l-516 164l37 117l508 -181z" />
    <glyph glyph-name="Aacute" unicode="&#xc1;" horiz-adv-x="1521" 
d="M1534 0h-502v119h178l-137 319h-631l-141 -319h172v-119h-487v119h170l495 1128h-182v119h358l537 -1247h170v-119zM1034 551l-274 659l-279 -659h553zM686 1497l-29 100l510 181l35 -117z" />
    <glyph glyph-name="Acircumflex" unicode="&#xc2;" horiz-adv-x="1521" 
d="M1534 0h-502v119h178l-137 319h-631l-141 -319h172v-119h-487v119h170l495 1128h-182v119h358l537 -1247h170v-119zM1034 551l-274 659l-279 -659h553zM1135 1495h-164l-209 156l-205 -156h-158l328 264h74z" />
    <glyph glyph-name="Atilde" unicode="&#xc3;" horiz-adv-x="1521" 
d="M1534 0h-502v119h178l-137 319h-631l-141 -319h172v-119h-487v119h170l495 1128h-182v119h358l537 -1247h170v-119zM1034 551l-274 659l-279 -659h553zM981 1716l74 -82q-90 -96 -195 -96q-51 0 -153 41q-47 18 -76 18q-53 0 -111 -59l-74 84q72 86 166 86q39 0 123 -33
q70 -27 113 -26q67 -1 133 67z" />
    <glyph glyph-name="Adieresis" unicode="&#xc4;" horiz-adv-x="1521" 
d="M1534 0h-502v119h178l-137 319h-631l-141 -319h172v-119h-487v119h170l495 1128h-182v119h358l537 -1247h170v-119zM1034 551l-274 659l-279 -659h553zM944 1753v-237h-129v237h129zM705 1753v-237h-130v237h130z" />
    <glyph glyph-name="Aring" unicode="&#xc5;" horiz-adv-x="1521" 
d="M1534 0h-502v119h178l-137 319h-631l-141 -319h172v-119h-487v119h170l495 1128h-182v119h358l537 -1247h170v-119zM1034 551l-274 659l-279 -659h553zM754 1862q86 0 145 -60.5t59 -146.5q0 -82 -60 -142.5t-144 -60.5t-144.5 60.5t-60.5 144.5t60.5 144.5t144.5 60.5z
M753.5 1780q-51.5 0 -87 -36t-35.5 -87t35.5 -87t87 -36t87.5 36t36 85q0 51 -36 88t-87.5 37z" />
    <glyph glyph-name="AE" unicode="&#xc6;" horiz-adv-x="1863" 
d="M1645 352h137v-352h-959v104h174v334h-510l-229 -334h174v-104h-487v119h172l776 1128h-170v119h1059v-352h-137v229h-510v-498h532v-112h-532v-510h510v229zM997 551v647l-440 -647h440z" />
    <glyph glyph-name="Ccedilla" unicode="&#xc7;" horiz-adv-x="1464" 
d="M1251 342h156q-72 -160 -239 -268.5t-353 -114.5l-41 -135q37 4 47 4q63 0 107.5 -46t44.5 -112q0 -72 -50.5 -121t-121.5 -49q-66 0 -112 41t-52 109h88q23 -61 80 -62q35 0 57.5 23.5t22.5 58.5t-22.5 57.5t-57.5 22.5q-43 0 -68 -33l-78 25l68 221
q-145 20 -242.5 63.5t-185.5 123.5q-231 209 -231 532q0 303 207.5 512t508.5 209q287 0 484 -211v174h116v-342h-133q-154 242 -460 242q-248 0 -416 -168t-168 -414q0 -244 167 -414t404 -170q143 0 272 66.5t201 175.5z" />
    <glyph glyph-name="Egrave" unicode="&#xc8;" 
d="M901 352h137v-352h-960v119h174v1128h-174v119h960v-352h-137v229h-512v-498h526v-112h-526v-510h512v229zM723 1497l-516 164l37 117l508 -181z" />
    <glyph glyph-name="Eacute" unicode="&#xc9;" 
d="M901 352h137v-352h-960v119h174v1128h-174v119h960v-352h-137v229h-512v-498h526v-112h-526v-510h512v229zM471 1497l-29 100l510 181l35 -117z" />
    <glyph glyph-name="Ecircumflex" unicode="&#xca;" 
d="M901 352h137v-352h-960v119h174v1128h-174v119h960v-352h-137v229h-512v-498h526v-112h-526v-510h512v229zM983 1495h-164l-209 156l-204 -156h-158l327 264h74z" />
    <glyph glyph-name="Edieresis" unicode="&#xcb;" 
d="M901 352h137v-352h-960v119h174v1128h-174v119h960v-352h-137v229h-512v-498h526v-112h-526v-510h512v229zM793 1753v-237h-129v237h129zM553 1753v-237h-129v237h129z" />
    <glyph glyph-name="Igrave" unicode="&#xcc;" horiz-adv-x="641" 
d="M389 1247v-1128h174v-119h-485v119h174v1128h-174v119h485v-119h-174zM422 1497l-461 164l37 117l453 -181z" />
    <glyph glyph-name="Iacute" unicode="&#xcd;" horiz-adv-x="641" 
d="M389 1247v-1128h174v-119h-485v119h174v1128h-174v119h485v-119h-174zM266 1497l-28 100l454 181l37 -117z" />
    <glyph glyph-name="Icircumflex" unicode="&#xce;" horiz-adv-x="641" 
d="M389 1247v-1128h174v-119h-485v119h174v1128h-174v119h485v-119h-174zM637 1495h-162l-153 156l-150 -156h-156l271 264h73z" />
    <glyph glyph-name="Idieresis" unicode="&#xcf;" horiz-adv-x="641" 
d="M389 1247v-1128h174v-119h-485v119h174v1128h-174v119h485v-119h-174zM492 1753v-237h-123v237h123zM287 1753v-237h-123v237h123z" />
    <glyph glyph-name="Eth" unicode="&#xd0;" horiz-adv-x="1439" 
d="M252 119v514h-168v112h168v502h-174v119h631q289 0 477 -201q186 -199 186 -483q0 -299 -215 -510q-174 -172 -448 -172h-631v119h174zM389 123h293q260 0 403 168q147 170 148 393q0 119 -48 233.5t-130 190.5q-141 135 -367 135h-299v-498h342v-112h-342v-510z" />
    <glyph glyph-name="Ntilde" unicode="&#xd1;" horiz-adv-x="1583" 
d="M1346 1247v-1247h-142l-815 1141v-1022h174v-119h-485v119h174v1128h-174v119h313l817 -1149v1030h-174v119h486v-119h-174zM1057 1716l73 -82q-90 -96 -194 -96q-51 0 -154 41q-47 18 -75 18q-53 0 -111 -59l-74 84q72 86 166 86q39 0 123 -33q70 -27 113 -26
q67 -1 133 67z" />
    <glyph glyph-name="Ograve" unicode="&#xd2;" horiz-adv-x="1572" 
d="M784 1403q303 0 511 -211t208 -516q0 -291 -212 -502t-505 -211q-297 0 -507.5 211t-210.5 508t210.5 509t505.5 212zM784 1266q-238 0 -407.5 -171t-169.5 -411q0 -242 170 -413t409 -171q236 0 407 170t171 406q0 248 -168 419t-412 171zM915 1497l-516 164l37 117
l508 -181z" />
    <glyph glyph-name="Oacute" unicode="&#xd3;" horiz-adv-x="1572" 
d="M784 1403q303 0 511 -211t208 -516q0 -291 -212 -502t-505 -211q-297 0 -507.5 211t-210.5 508t210.5 509t505.5 212zM784 1266q-238 0 -407.5 -171t-169.5 -411q0 -242 170 -413t409 -171q236 0 407 170t171 406q0 248 -168 419t-412 171zM719 1497l-29 100l510 181
l35 -117z" />
    <glyph glyph-name="Ocircumflex" unicode="&#xd4;" horiz-adv-x="1572" 
d="M784 1403q303 0 511 -211t208 -516q0 -291 -212 -502t-505 -211q-297 0 -507.5 211t-210.5 508t210.5 509t505.5 212zM784 1266q-238 0 -407.5 -171t-169.5 -411q0 -242 170 -413t409 -171q236 0 407 170t171 406q0 248 -168 419t-412 171zM1161 1495h-164l-209 156
l-204 -156h-158l328 264h73z" />
    <glyph glyph-name="Otilde" unicode="&#xd5;" horiz-adv-x="1572" 
d="M784 1403q303 0 511 -211t208 -516q0 -291 -212 -502t-505 -211q-297 0 -507.5 211t-210.5 508t210.5 509t505.5 212zM784 1266q-238 0 -407.5 -171t-169.5 -411q0 -242 170 -413t409 -171q236 0 407 170t171 406q0 248 -168 419t-412 171zM1057 1716l73 -82
q-90 -96 -194 -96q-51 0 -154 41q-47 18 -75 18q-53 0 -111 -59l-74 84q72 86 166 86q39 0 123 -33q70 -27 113 -26q67 -1 133 67z" />
    <glyph glyph-name="Odieresis" unicode="&#xd6;" horiz-adv-x="1572" 
d="M784 1403q303 0 511 -211t208 -516q0 -291 -212 -502t-505 -211q-297 0 -507.5 211t-210.5 508t210.5 509t505.5 212zM784 1266q-238 0 -407.5 -171t-169.5 -411q0 -242 170 -413t409 -171q236 0 407 170t171 406q0 248 -168 419t-412 171zM977 1753v-237h-129v237h129z
M737 1753v-237h-129v237h129z" />
    <glyph glyph-name="multiply" unicode="&#xd7;" 
d="M246 305l-76 78l313 313l-313 314l78 77l313 -313l313 313l76 -77l-313 -312l313 -313l-78 -80l-313 313z" />
    <glyph glyph-name="Oslash" unicode="&#xd8;" horiz-adv-x="1566" 
d="M373 84l-164 -205l-82 68l168 207q-74 72 -113 131q-115 168 -114 395q0 301 209.5 512t508.5 211q176 0 320 -78l92 -55l158 192l80 -67l-156 -193q219 -221 219 -520q0 -291 -196 -494q-213 -225 -517 -225q-137 0 -272 49q-10 4 -35.5 19.5t-75.5 38.5zM1190 1092
l-725 -893q106 -57 171.5 -78t149.5 -21q238 0 406 171t168 415q0 121 -39 213.5t-131 192.5zM385 266l725 893q-106 63 -171 85t-155 22q-240 0 -408.5 -171t-168.5 -415q0 -119 39 -210t139 -204z" />
    <glyph glyph-name="Ugrave" unicode="&#xd9;" horiz-adv-x="1341" 
d="M1116 1247v-823q0 -203 -125 -332t-321 -129q-211 0 -342 154q-102 123 -103 325v805h-174v119h475v-119h-164v-790q0 -172 82 -260q47 -53 97.5 -75t126.5 -22q158 0 245 117q66 86 66 240v790h-164v119h475v-119h-174zM801 1497l-516 164l37 117l507 -181z" />
    <glyph glyph-name="Uacute" unicode="&#xda;" horiz-adv-x="1341" 
d="M1116 1247v-823q0 -203 -125 -332t-321 -129q-211 0 -342 154q-102 123 -103 325v805h-174v119h475v-119h-164v-790q0 -172 82 -260q47 -53 97.5 -75t126.5 -22q158 0 245 117q66 86 66 240v790h-164v119h475v-119h-174zM604 1497l-29 100l510 181l35 -117z" />
    <glyph glyph-name="Ucircumflex" unicode="&#xdb;" horiz-adv-x="1341" 
d="M1116 1247v-823q0 -203 -125 -332t-321 -129q-211 0 -342 154q-102 123 -103 325v805h-174v119h475v-119h-164v-790q0 -172 82 -260q47 -53 97.5 -75t126.5 -22q158 0 245 117q66 86 66 240v790h-164v119h475v-119h-174zM1053 1495h-164l-209 156l-205 -156h-158l328 264
h74z" />
    <glyph glyph-name="Udieresis" unicode="&#xdc;" horiz-adv-x="1341" 
d="M1116 1247v-823q0 -203 -125 -332t-321 -129q-211 0 -342 154q-102 123 -103 325v805h-174v119h475v-119h-164v-790q0 -172 82 -260q47 -53 97.5 -75t126.5 -22q158 0 245 117q66 86 66 240v790h-164v119h475v-119h-174zM866 1753v-237h-129v237h129zM627 1753v-237h-129
v237h129z" />
    <glyph glyph-name="Yacute" unicode="&#xdd;" horiz-adv-x="1241" 
d="M698 459v-340h174v-119h-485v119h174v340l-411 788h-164v119h477v-119h-170l338 -657l319 657h-172v119h475v-119h-161zM606 1497l-28 100l509 181l35 -117z" />
    <glyph glyph-name="Thorn" unicode="&#xde;" horiz-adv-x="1169" 
d="M389 305v-186h174v-119h-485v119h174v1128h-174v119h485v-119h-174v-114h268q201 0 327 -116t126 -298q0 -193 -149 -322q-111 -92 -289 -92h-283zM389 428h270q137 0 218 74q94 88 94 215q0 129 -88 211t-226 82h-268v-582z" />
    <glyph glyph-name="germandbls" unicode="&#xdf;" horiz-adv-x="1183" 
d="M545 14v123q86 -47 168 -47q115 0 195.5 77t80.5 185q0 117 -88 201q-88 82 -254 82q-33 0 -67 -2v117q133 0 211.5 70.5t78.5 189.5q0 106 -72.5 183t-174.5 77q-135 0 -211 -119q-47 -72 -47 -205v-946h-302v119h168v848q0 186 111 306t285 120q158 0 269.5 -111
t111.5 -266q0 -106 -53.5 -187t-147.5 -116q100 -18 162 -62q150 -104 149 -307q0 -160 -108.5 -265.5t-274.5 -105.5q-92 0 -190 41z" />
    <glyph glyph-name="agrave" unicode="&#xe0;" horiz-adv-x="1359" 
d="M1120 883v-764h168v-119h-293v211q-51 -80 -92 -119q-129 -119 -317 -119q-213 0 -366.5 155t-153.5 370q0 217 154.5 373.5t369.5 156.5q133 0 229 -56.5t176 -183.5v213h293v-118h-168zM596 905q-166 0 -283.5 -118.5t-117.5 -286.5q0 -166 117.5 -285t283.5 -119
q164 0 282.5 119t118.5 283q0 172 -115.5 289.5t-285.5 117.5zM791 1233l-50 -96l-471 256l54 110z" />
    <glyph glyph-name="aacute" unicode="&#xe1;" horiz-adv-x="1359" 
d="M1120 883v-764h168v-119h-293v211q-51 -80 -92 -119q-129 -119 -317 -119q-213 0 -366.5 155t-153.5 370q0 217 154.5 373.5t369.5 156.5q133 0 229 -56.5t176 -183.5v213h293v-118h-168zM596 905q-166 0 -283.5 -118.5t-117.5 -286.5q0 -166 117.5 -285t283.5 -119
q164 0 282.5 119t118.5 283q0 172 -115.5 289.5t-285.5 117.5zM565 1141l-45 94l469 266l58 -110z" />
    <glyph glyph-name="acircumflex" unicode="&#xe2;" horiz-adv-x="1359" 
d="M1120 883v-764h168v-119h-293v211q-51 -80 -92 -119q-129 -119 -317 -119q-213 0 -366.5 155t-153.5 370q0 217 154.5 373.5t369.5 156.5q133 0 229 -56.5t176 -183.5v213h293v-118h-168zM596 905q-166 0 -283.5 -118.5t-117.5 -286.5q0 -166 117.5 -285t283.5 -119
q164 0 282.5 119t118.5 283q0 172 -115.5 289.5t-285.5 117.5zM1014 1180h-164l-209 155l-205 -155h-157l327 264h74z" />
    <glyph glyph-name="atilde" unicode="&#xe3;" horiz-adv-x="1359" 
d="M1120 883v-764h168v-119h-293v211q-51 -80 -92 -119q-129 -119 -317 -119q-213 0 -366.5 155t-153.5 370q0 217 154.5 373.5t369.5 156.5q133 0 229 -56.5t176 -183.5v213h293v-118h-168zM596 905q-166 0 -283.5 -118.5t-117.5 -286.5q0 -166 117.5 -285t283.5 -119
q164 0 282.5 119t118.5 283q0 172 -115.5 289.5t-285.5 117.5zM897 1395l74 -82q-90 -96 -195 -96q-51 0 -153 40q-47 18 -76 19q-53 0 -111 -59l-74 83q72 86 166 86q39 0 123 -32q70 -27 113 -27q65 0 133 68z" />
    <glyph glyph-name="adieresis" unicode="&#xe4;" horiz-adv-x="1359" 
d="M1120 883v-764h168v-119h-293v211q-51 -80 -92 -119q-129 -119 -317 -119q-213 0 -366.5 155t-153.5 370q0 217 154.5 373.5t369.5 156.5q133 0 229 -56.5t176 -183.5v213h293v-118h-168zM596 905q-166 0 -283.5 -118.5t-117.5 -286.5q0 -166 117.5 -285t283.5 -119
q164 0 282.5 119t118.5 283q0 172 -115.5 289.5t-285.5 117.5zM821 1423v-237h-125v237h125zM578 1423v-237h-125v237h125z" />
    <glyph glyph-name="aring" unicode="&#xe5;" horiz-adv-x="1359" 
d="M1120 883v-764h168v-119h-293v211q-51 -80 -92 -119q-129 -119 -317 -119q-213 0 -366.5 155t-153.5 370q0 217 154.5 373.5t369.5 156.5q133 0 229 -56.5t176 -183.5v213h293v-118h-168zM596 905q-166 0 -283.5 -118.5t-117.5 -286.5q0 -166 117.5 -285t283.5 -119
q164 0 282.5 119t118.5 283q0 172 -115.5 289.5t-285.5 117.5zM637 1550q86 0 145.5 -60t59.5 -147q0 -82 -60.5 -142t-144.5 -60t-144.5 60.5t-60.5 144.5t60.5 144t144.5 60zM637 1468q-51 0 -87 -35.5t-36 -87t36 -87t87 -35.5t87 35.5t36 84.5q0 51 -36 88t-87 37z" />
    <glyph glyph-name="ae" unicode="&#xe6;" horiz-adv-x="2115" 
d="M2048 463h-920q10 -127 70 -207q53 -74 142.5 -117t185.5 -43q156 0 258 99q23 23 78 92h143q-78 -152 -198.5 -233t-272.5 -81q-186 0 -324 127q-45 43 -92 121v-221h-125v231q-133 -258 -397 -258q-217 0 -373.5 156t-156.5 373q0 213 154.5 369.5t365.5 156.5
q266 0 407 -240v213h125v-225q143 252 412 252q211 0 364.5 -155.5t153.5 -370.5v-39zM1126 565h795q-31 154 -140.5 247t-260.5 93q-150 0 -258.5 -94t-135.5 -246zM598 905q-168 0 -285.5 -117.5t-117.5 -283.5q0 -168 119.5 -288t287.5 -120q166 0 286 120t120 284
q0 170 -119 287.5t-291 117.5z" />
    <glyph glyph-name="ccedilla" unicode="&#xe7;" horiz-adv-x="1130" 
d="M946 317h137q-57 -150 -184 -243.5t-283 -100.5l-41 -143q29 12 56 12q61 0 103 -45t42 -110q0 -72 -48 -120t-118 -48q-135 0 -161 141h86q25 -53 77 -53q33 0 54.5 22.5t21.5 55.5q0 35 -22.5 58.5t-57.5 23.5q-41 0 -71 -37l-72 26l65 224q-184 35 -282 120
q-182 160 -182 400q0 219 151.5 373.5t364.5 154.5q203 0 356 -162v135h113v-292h-119q-47 90 -137 143t-197 53q-168 0 -285.5 -117.5t-117.5 -287.5q0 -166 116.5 -284t282.5 -118q229 0 352 219z" />
    <glyph glyph-name="egrave" unicode="&#xe8;" horiz-adv-x="1175" 
d="M936 285h133q-72 -147 -196.5 -229.5t-280.5 -82.5q-219 0 -372.5 154t-153.5 373q0 217 153.5 372.5t366.5 155.5q217 0 370.5 -153.5t153.5 -368.5q0 -25 -2 -45h-918q16 -147 101 -238q121 -133 299 -133q219 0 346 195zM190 563h801q-25 152 -138.5 250t-266.5 98
q-147 0 -259 -98t-137 -250zM733 1233l-49 -96l-471 256l53 110z" />
    <glyph glyph-name="eacute" unicode="&#xe9;" horiz-adv-x="1175" 
d="M936 285h133q-72 -147 -196.5 -229.5t-280.5 -82.5q-219 0 -372.5 154t-153.5 373q0 217 153.5 372.5t366.5 155.5q217 0 370.5 -153.5t153.5 -368.5q0 -25 -2 -45h-918q16 -147 101 -238q121 -133 299 -133q219 0 346 195zM190 563h801q-25 152 -138.5 250t-266.5 98
q-147 0 -259 -98t-137 -250zM526 1141l-45 94l469 266l58 -110z" />
    <glyph glyph-name="ecircumflex" unicode="&#xea;" horiz-adv-x="1175" 
d="M936 285h133q-72 -147 -196.5 -229.5t-280.5 -82.5q-219 0 -372.5 154t-153.5 373q0 217 153.5 372.5t366.5 155.5q217 0 370.5 -153.5t153.5 -368.5q0 -25 -2 -45h-918q16 -147 101 -238q121 -133 299 -133q219 0 346 195zM190 563h801q-25 152 -138.5 250t-266.5 98
q-147 0 -259 -98t-137 -250zM977 1180h-164l-209 155l-205 -155h-157l327 264h74z" />
    <glyph glyph-name="edieresis" unicode="&#xeb;" horiz-adv-x="1175" 
d="M936 285h133q-72 -147 -196.5 -229.5t-280.5 -82.5q-219 0 -372.5 154t-153.5 373q0 217 153.5 372.5t366.5 155.5q217 0 370.5 -153.5t153.5 -368.5q0 -25 -2 -45h-918q16 -147 101 -238q121 -133 299 -133q219 0 346 195zM190 563h801q-25 152 -138.5 250t-266.5 98
q-147 0 -259 -98t-137 -250zM778 1423v-237h-125v237h125zM535 1423v-237h-125v237h125z" />
    <glyph glyph-name="igrave" unicode="&#xec;" horiz-adv-x="595" 
d="M365 1001v-882h167v-119h-460v119h168v764h-168v118h293zM328 1141l-359 274l80 90l346 -286z" />
    <glyph glyph-name="iacute" unicode="&#xed;" horiz-adv-x="595" 
d="M365 1001v-882h167v-119h-460v119h168v764h-168v118h293zM256 1141l-68 78l347 286l79 -90z" />
    <glyph glyph-name="icircumflex" unicode="&#xee;" horiz-adv-x="595" 
d="M365 1001v-882h167v-119h-460v119h168v764h-168v118h293zM604 1180h-162l-141 149l-139 -149h-156l260 264h74z" />
    <glyph glyph-name="idieresis" unicode="&#xef;" horiz-adv-x="595" 
d="M365 1001v-882h167v-119h-460v119h168v764h-168v118h293zM469 1423v-237h-119v237h119zM248 1423v-237h-119v237h119z" />
    <glyph glyph-name="eth" unicode="&#xf0;" horiz-adv-x="1183" 
d="M154 1294l73 86q150 -16 299 -69l279 123l41 -86l-201 -86q203 -90 338 -298t135 -432q0 -240 -150.5 -399.5t-375.5 -159.5q-219 0 -372.5 155t-153.5 374q0 217 150.5 371.5t363.5 154.5q113 0 247 -67q-35 57 -120.5 123.5t-178.5 109.5l-301 -135l-39 88l211 92
q-157 43 -245 55zM592 905q-164 0 -280.5 -118.5t-116.5 -284.5q0 -168 116.5 -287t280.5 -119q162 0 279.5 118t117.5 282q0 172 -115.5 290.5t-281.5 118.5z" />
    <glyph glyph-name="ntilde" unicode="&#xf1;" horiz-adv-x="1300" 
d="M365 1001v-178q106 205 333 205q88 0 172 -39t142 -108q90 -109 90 -295v-467h168v-119h-461v119h168v422q0 176 -78 262q-92 102 -233 102q-150 0 -240 -117q-61 -82 -61 -233v-436h167v-119h-460v119h168v764h-168v118h293zM922 1395l73 -82q-90 -96 -194 -96
q-51 0 -154 40q-47 18 -76 19q-53 0 -110 -59l-74 83q72 86 166 86q39 0 123 -32q70 -27 112 -27q66 0 134 68z" />
    <glyph glyph-name="ograve" unicode="&#xf2;" horiz-adv-x="1181" 
d="M590 1028q221 0 373.5 -153.5t152.5 -376.5q0 -215 -155.5 -370t-370.5 -155q-217 0 -370.5 155t-153.5 372t154.5 372.5t369.5 155.5zM590 905q-162 0 -278.5 -118.5t-116.5 -284.5q0 -168 116.5 -287t280.5 -119q162 0 278.5 118t116.5 282q0 172 -114.5 290.5
t-282.5 118.5zM743 1233l-49 -96l-471 256l53 110z" />
    <glyph glyph-name="oacute" unicode="&#xf3;" horiz-adv-x="1181" 
d="M590 1028q221 0 373.5 -153.5t152.5 -376.5q0 -215 -155.5 -370t-370.5 -155q-217 0 -370.5 155t-153.5 372t154.5 372.5t369.5 155.5zM590 905q-162 0 -278.5 -118.5t-116.5 -284.5q0 -168 116.5 -287t280.5 -119q162 0 278.5 118t116.5 282q0 172 -114.5 290.5
t-282.5 118.5zM537 1141l-45 94l469 266l57 -110z" />
    <glyph glyph-name="ocircumflex" unicode="&#xf4;" horiz-adv-x="1181" 
d="M590 1028q221 0 373.5 -153.5t152.5 -376.5q0 -215 -155.5 -370t-370.5 -155q-217 0 -370.5 155t-153.5 372t154.5 372.5t369.5 155.5zM590 905q-162 0 -278.5 -118.5t-116.5 -284.5q0 -168 116.5 -287t280.5 -119q162 0 278.5 118t116.5 282q0 172 -114.5 290.5
t-282.5 118.5zM973 1180h-164l-209 155l-205 -155h-157l327 264h74z" />
    <glyph glyph-name="otilde" unicode="&#xf5;" horiz-adv-x="1181" 
d="M590 1028q221 0 373.5 -153.5t152.5 -376.5q0 -215 -155.5 -370t-370.5 -155q-217 0 -370.5 155t-153.5 372t154.5 372.5t369.5 155.5zM590 905q-162 0 -278.5 -118.5t-116.5 -284.5q0 -168 116.5 -287t280.5 -119q162 0 278.5 118t116.5 282q0 172 -114.5 290.5
t-282.5 118.5zM856 1395l74 -82q-90 -96 -195 -96q-51 0 -153 40q-47 18 -76 19q-53 0 -111 -59l-73 83q72 86 165 86q39 0 123 -32q70 -27 113 -27q65 0 133 68z" />
    <glyph glyph-name="odieresis" unicode="&#xf6;" horiz-adv-x="1181" 
d="M590 1028q221 0 373.5 -153.5t152.5 -376.5q0 -215 -155.5 -370t-370.5 -155q-217 0 -370.5 155t-153.5 372t154.5 372.5t369.5 155.5zM590 905q-162 0 -278.5 -118.5t-116.5 -284.5q0 -168 116.5 -287t280.5 -119q162 0 278.5 118t116.5 282q0 172 -114.5 290.5
t-282.5 118.5zM782 1423v-237h-125v237h125zM539 1423v-237h-125v237h125z" />
    <glyph glyph-name="divide" unicode="&#xf7;" 
d="M88 641v109h942v-109h-942zM623 520v-194h-127v194h127zM623 1067v-195h-127v195h127z" />
    <glyph glyph-name="oslash" unicode="&#xf8;" horiz-adv-x="1189" 
d="M328 43l-107 -143l-80 57l107 145q-80 82 -96 107q-86 121 -86 291q0 219 155.5 373.5t374.5 154.5q131 0 270 -74l107 150l80 -60l-107 -147q180 -174 180 -389q0 -225 -155.5 -380t-380.5 -155q-137 0 -262 70zM868 793l-462 -646q104 -51 188 -51q170 0 286.5 116
t116.5 286q0 86 -29.5 152.5t-99.5 142.5zM326 207l465 645q-104 53 -197 53q-164 0 -281.5 -116.5t-117.5 -278.5q0 -88 29.5 -156.5t101.5 -146.5z" />
    <glyph glyph-name="ugrave" unicode="&#xf9;" horiz-adv-x="1290" 
d="M1053 1001v-882h168v-119h-287v166q-51 -90 -142.5 -141.5t-199.5 -51.5q-170 0 -281.5 118t-111.5 298v494h-168v118h293v-565q0 -164 86 -250q86 -90 213 -90q143 0 237 115q68 78 68 221v451h-170v118h295zM770 1233l-49 -96l-471 256l53 110z" />
    <glyph glyph-name="uacute" unicode="&#xfa;" horiz-adv-x="1290" 
d="M1053 1001v-882h168v-119h-287v166q-51 -90 -142.5 -141.5t-199.5 -51.5q-170 0 -281.5 118t-111.5 298v494h-168v118h293v-565q0 -164 86 -250q86 -90 213 -90q143 0 237 115q68 78 68 221v451h-170v118h295zM557 1141l-45 94l469 266l57 -110z" />
    <glyph glyph-name="ucircumflex" unicode="&#xfb;" horiz-adv-x="1290" 
d="M1053 1001v-882h168v-119h-287v166q-51 -90 -142.5 -141.5t-199.5 -51.5q-170 0 -281.5 118t-111.5 298v494h-168v118h293v-565q0 -164 86 -250q86 -90 213 -90q143 0 237 115q68 78 68 221v451h-170v118h295zM993 1180h-164l-208 155l-205 -155h-158l328 264h73z" />
    <glyph glyph-name="udieresis" unicode="&#xfc;" horiz-adv-x="1290" 
d="M1053 1001v-882h168v-119h-287v166q-51 -90 -142.5 -141.5t-199.5 -51.5q-170 0 -281.5 118t-111.5 298v494h-168v118h293v-565q0 -164 86 -250q86 -90 213 -90q143 0 237 115q68 78 68 221v451h-170v118h295zM803 1423v-237h-125v237h125zM559 1423v-237h-125v237h125z
" />
    <glyph glyph-name="yacute" unicode="&#xfd;" horiz-adv-x="1138" 
d="M999 883l-477 -1143h164v-119h-463v119h168l103 252l-353 891h-161v118h458v-118h-157l280 -731l303 731h-157v118h452v-118h-160zM543 1141l-45 94l469 266l57 -110z" />
    <glyph glyph-name="thorn" unicode="&#xfe;" horiz-adv-x="1353" 
d="M356 1366v-586q143 248 412 248q213 0 365.5 -155.5t152.5 -372.5t-149.5 -372t-360.5 -155q-201 0 -336 131q-39 37 -84 113v-469h168v-121h-461v121h168v1499h-168v119h293zM756 905q-166 0 -284 -118.5t-118 -286.5q0 -166 118 -285t284 -119q164 0 282.5 118
t118.5 282q0 172 -116.5 290.5t-284.5 118.5z" />
    <glyph glyph-name="ydieresis" unicode="&#xff;" horiz-adv-x="1138" 
d="M999 883l-477 -1143h164v-119h-463v119h168l103 252l-353 891h-161v118h458v-118h-157l280 -731l303 731h-157v118h452v-118h-160zM768 1423v-237h-125v237h125zM524 1423v-237h-125v237h125z" />
    <glyph glyph-name="dotlessi" unicode="&#x131;" horiz-adv-x="595" 
d="M365 1001v-882h167v-119h-460v119h168v764h-168v118h293z" />
    <glyph glyph-name="Lslash" unicode="&#x141;" horiz-adv-x="993" 
d="M252 580l-189 -129v129l189 129v538h-174v119h485v-119h-174v-463l285 199v-131l-285 -199v-530h447v229h137v-352h-895v119h174v461z" />
    <glyph glyph-name="lslash" unicode="&#x142;" horiz-adv-x="589" 
d="M356 836l168 125v-127l-168 -127v-588h168v-119h-461v119h168v510l-163 -123v129l163 123v489h-168v119h293v-530z" />
    <glyph glyph-name="OE" unicode="&#x152;" horiz-adv-x="2215" 
d="M1995 352h137v-352h-782v344q-57 -121 -133 -197q-184 -184 -443 -184q-291 0 -498.5 213t-207.5 510q0 293 207.5 505t496.5 212q256 0 434 -172q80 -78 144 -211v346h782v-348h-137v225h-508v-498h502v-112h-502v-510h508v229zM772 1266q-233 0 -399 -171t-166 -413
q0 -240 166 -411t401 -171q231 0 398 170t167 406q0 248 -164.5 419t-402.5 171z" />
    <glyph glyph-name="oe" unicode="&#x153;" horiz-adv-x="2119" 
d="M1872 291l143 2q-68 -150 -197.5 -235t-291.5 -85q-156 0 -277 77t-186 218q-70 -141 -191.5 -218t-273.5 -77q-219 0 -375.5 156t-156.5 375q0 217 155.5 370.5t374.5 153.5q221 0 369 -147q49 -49 98 -150q57 121 137 187q137 111 328 110q213 0 369.5 -152.5
t156.5 -361.5q0 -27 -2 -49h-922q12 -141 99 -238q119 -131 295 -131q215 0 348 195zM1133 567h788q-27 111 -76 178q-55 76 -139 118t-180 42q-150 0 -258 -92t-135 -246zM598 905q-168 0 -285.5 -118.5t-117.5 -286.5q0 -166 117.5 -285t285.5 -119q164 0 283.5 119
t119.5 283q0 170 -117.5 288.5t-285.5 118.5z" />
    <glyph glyph-name="Scaron" unicode="&#x160;" horiz-adv-x="1013" 
d="M88 0v371h129q12 -129 88 -200t203 -71q123 0 205 77t82 192q0 133 -101 200q-63 41 -215 78q-123 31 -177 53.5t-101 61.5q-123 104 -123 266q0 158 114.5 266.5t282.5 108.5q197 0 279 -154v117h116v-324h-131q-10 102 -78.5 163t-177.5 61q-117 0 -191.5 -65.5
t-74.5 -168.5q0 -147 127 -209q43 -23 246 -69q166 -39 255 -138.5t89 -244.5q0 -172 -120 -290t-296 -118q-199 0 -313 166v-129h-117zM874 1759l-335 -264h-74l-326 264h164l209 -155l203 155h159z" />
    <glyph glyph-name="scaron" unicode="&#x161;" horiz-adv-x="872" 
d="M731 1001v-249h-125q-18 174 -190 174q-84 0 -142.5 -50.5t-58.5 -121.5q0 -82 74 -129q47 -31 151 -52q166 -35 240 -79q115 -76 115 -218q0 -129 -98.5 -216t-243.5 -87q-176 0 -273 148v-121h-102v295h127q31 -219 231 -219q96 0 161 55t65 137q0 86 -64 129
q-39 29 -168 58q-166 35 -237 84q-111 72 -111 209q0 121 90 200.5t225 79.5q147 0 232 -110v83h102zM791 1444l-336 -264h-74l-326 264h164l209 -156l203 156h160z" />
    <glyph glyph-name="Ydieresis" unicode="&#x178;" horiz-adv-x="1241" 
d="M698 459v-340h174v-119h-485v119h174v340l-411 788h-164v119h477v-119h-170l338 -657l319 657h-172v119h475v-119h-161zM819 1753v-237h-129v237h129zM580 1753v-237h-129v237h129z" />
    <glyph glyph-name="Zcaron" unicode="&#x17d;" horiz-adv-x="1107" 
d="M1020 354v-354h-932v115l711 1128h-551v-231h-137v354h856v-111l-701 -1130h617v229h137zM942 1759l-336 -264h-74l-325 264h164l209 -155l202 155h160z" />
    <glyph glyph-name="zcaron" unicode="&#x17e;" horiz-adv-x="907" 
d="M715 305h112v-305h-761v106l575 777h-432v-191h-113v309h703v-114l-561 -768h477v186zM848 1444l-336 -264h-74l-325 264h163l209 -156l203 156h160z" />
    <glyph glyph-name="florin" unicode="&#x192;" 
d="M659 838l-127 -719q-35 -190 -128 -282.5t-279 -106.5l20 114q121 12 175.5 72.5t78.5 202.5l127 719h-161l18 112h164l22 137q27 160 52.5 223.5t87.5 116.5q100 92 284 105l-18 -113q-121 -10 -184 -76q-37 -37 -52.5 -79.5t-36.5 -176.5l-22 -137h170l-19 -112h-172z
" />
    <glyph glyph-name="circumflex" unicode="&#x2c6;" horiz-adv-x="1024" 
d="M881 1180h-164l-209 155l-205 -155h-158l328 264h74z" />
    <glyph glyph-name="caron" unicode="&#x2c7;" horiz-adv-x="1024" 
d="M881 1444l-336 -264h-74l-326 264h164l209 -156l203 156h160z" />
    <glyph glyph-name="breve" unicode="&#x2d8;" horiz-adv-x="1024" 
d="M727 1440h94q-6 -115 -91 -184.5t-218 -69.5t-219 70.5t-90 183.5h92q10 -70 68.5 -111t148.5 -41t148.5 41t66.5 111z" />
    <glyph glyph-name="dotaccent" unicode="&#x2d9;" horiz-adv-x="1024" 
d="M573 1423v-237h-124v237h124z" />
    <glyph glyph-name="ring" unicode="&#x2da;" horiz-adv-x="1024" 
d="M512 1550q86 0 145.5 -60t59.5 -147q0 -82 -60.5 -142t-144.5 -60t-144.5 60.5t-60.5 144.5t60.5 144t144.5 60zM512 1468q-51 0 -87 -35.5t-36 -87t36 -87t87 -35.5t87 35.5t36 84.5q0 51 -36 88t-87 37z" />
    <glyph glyph-name="ogonek" unicode="&#x2db;" horiz-adv-x="1024" 
d="M500 0h176q-133 -74 -184.5 -121t-51.5 -94q0 -63 90 -64q49 0 119 21v-107q-80 -18 -131 -18q-88 0 -141 46t-53 122q0 63 40 112.5t136 102.5z" />
    <glyph glyph-name="tilde" unicode="&#x2dc;" horiz-adv-x="1024" 
d="M743 1395l74 -82q-90 -96 -194 -96q-51 0 -154 40q-47 18 -76 19q-53 0 -110 -59l-74 83q72 86 166 86q39 0 123 -32q70 -27 112 -27q65 0 133 68z" />
    <glyph glyph-name="hungarumlaut" unicode="&#x2dd;" horiz-adv-x="1024" 
d="M643 1419l-295 -278l-78 73l285 287zM647 1141l-76 73l285 287l88 -82z" />
    <glyph glyph-name="pi" unicode="&#x3c0;" horiz-adv-x="1155" 
d="M205 0v866h-152v115h1049v-115h-150v-866h-127v866h-493v-866h-127z" />
    <glyph glyph-name="endash" unicode="&#x2013;" 
d="M991 455h-864v127h864v-127z" />
    <glyph glyph-name="emdash" unicode="&#x2014;" horiz-adv-x="1505" 
d="M1505 455h-1505v127h1505v-127z" />
    <glyph glyph-name="quoteleft" unicode="&#x2018;" horiz-adv-x="440" 
d="M229 1366h123l-143 -352h-121z" />
    <glyph glyph-name="quoteright" unicode="&#x2019;" horiz-adv-x="440" 
d="M209 1014h-121l141 352h123z" />
    <glyph glyph-name="quotesinglbase" unicode="&#x201a;" horiz-adv-x="440" 
d="M209 -184h-121l141 350h123z" />
    <glyph glyph-name="quotedblleft" unicode="&#x201c;" horiz-adv-x="686" 
d="M475 1366h123l-143 -352h-121zM229 1366h123l-143 -352h-121z" />
    <glyph glyph-name="quotedblright" unicode="&#x201d;" horiz-adv-x="686" 
d="M455 1014h-121l141 352h123zM209 1014h-121l141 352h123z" />
    <glyph glyph-name="quotedblbase" unicode="&#x201e;" horiz-adv-x="686" 
d="M455 -184h-121l141 350h123zM209 -184h-121l141 350h123z" />
    <glyph glyph-name="dagger" unicode="&#x2020;" 
d="M629 823v-1196h-133v1196h-369v125h369v418h133v-418h364v-125h-364z" />
    <glyph glyph-name="daggerdbl" unicode="&#x2021;" 
d="M629 823v-653h364v-125h-364v-418h-133v418h-369v125h369v653h-369v125h369v418h133v-418h364v-125h-364z" />
    <glyph glyph-name="bullet" unicode="&#x2022;" horiz-adv-x="1366" 
d="M690 977q113 0 196 -84t83 -199q0 -119 -83 -201.5t-200 -82.5t-201 82.5t-84 199.5q0 119 84 202t205 83z" />
    <glyph glyph-name="ellipsis" unicode="&#x2026;" horiz-adv-x="1097" 
d="M250 209v-209h-133v209h133zM616 209v-209h-133v209h133zM983 209v-209h-133v209h133z" />
    <glyph glyph-name="perthousand" unicode="&#x2030;" horiz-adv-x="2285" 
d="M524 0h-110l606 1366h108zM1153 604q133 0 225 -93t92 -226q0 -127 -93 -219.5t-222 -92.5t-222 93.5t-93 224.5q0 129 92 221t221 92zM1155 494q-84 0 -144.5 -59.5t-60.5 -143.5t60.5 -145.5t144.5 -61.5t144.5 59.5t60.5 143.5q0 86 -59.5 146.5t-145.5 60.5z
M383 1393q133 0 225 -92.5t92 -225.5q0 -129 -93 -221t-222 -92q-131 0 -224 93t-93 224q0 129 92 221.5t223 92.5zM383 1282q-84 0 -144.5 -59.5t-60.5 -143.5t61.5 -145.5t145.5 -61.5t144.5 60.5t60.5 142.5q0 86 -60.5 146.5t-146.5 60.5zM1898 604q133 0 225.5 -93
t92.5 -226q0 -127 -93 -219.5t-222 -92.5q-131 0 -224.5 93.5t-93.5 224.5q0 129 92 221t223 92zM1898 494q-84 0 -144 -59.5t-60 -143.5t61.5 -145.5t145.5 -61.5t144 60.5t60 142.5q0 88 -60.5 147.5t-146.5 59.5z" />
    <glyph glyph-name="guilsinglleft" unicode="&#x2039;" horiz-adv-x="413" 
d="M297 152l-221 329v76l221 328l29 -109l-164 -260l164 -262z" />
    <glyph glyph-name="guilsinglright" unicode="&#x203a;" horiz-adv-x="411" 
d="M115 152l-27 102l162 262l-162 260l27 109l221 -328v-76z" />
    <glyph glyph-name="fraction" unicode="&#x2044;" horiz-adv-x="251" 
d="M-127 0h-98l606 1366h94z" />
    <glyph glyph-name="Euro" unicode="&#x20ac;" horiz-adv-x="1708" 
d="M434 856h889l-47 -113l-864 -2q-2 -20 -2 -55q0 -33 2 -55h817l-49 -115h-746q51 -184 205 -300t344 -116q143 0 267 65.5t206 184.5h154q-92 -180 -258 -283.5t-367 -103.5q-250 0 -442.5 152.5t-253.5 400.5h-193l47 115h129q-2 25 -2 53q0 31 2 57h-176l47 115h146
q59 240 253.5 393.5t442.5 153.5q274 0 477 -201v164h117v-336h-131q-166 236 -463 236q-193 0 -345.5 -114t-205.5 -296z" />
    <glyph glyph-name="trademark" unicode="&#x2122;" horiz-adv-x="1710" 
d="M362 1284v-616h99v-80h-285v80h96v616h-151v-137h-80v219h555v-219h-80v137h-154zM1542 1286v-618h98v-80h-284v80h96v561l-299 -641h-70l-268 637v-557h98v-80h-280v80h96v618h-96v80h217l270 -647l299 647h221v-80h-98z" />
    <glyph glyph-name="uni2126" unicode="&#x2126;" horiz-adv-x="1366" 
d="M57 0v115h385q-385 223 -385 628q0 276 180.5 466t444.5 190t444.5 -189.5t180.5 -466.5q0 -408 -383 -628h383v-115h-531v104q150 86 230 175q172 190 172 450t-179 426q-139 129 -313 129q-213 0 -356.5 -158.5t-143.5 -396.5q0 -397 404 -625v-104h-533z" />
    <glyph glyph-name="partialdiff" unicode="&#x2202;" horiz-adv-x="1024" 
d="M182 1262l17 114q170 -25 282.5 -75t210.5 -142q125 -121 194.5 -295t69.5 -370q0 -193 -82 -318q-61 -94 -156 -146.5t-204 -52.5q-182 0 -314 136.5t-132 324.5q0 190 124.5 322.5t303.5 132.5q131 0 223 -68q37 -27 88 -96l-12 31q-57 141 -115.5 224t-157.5 149
q-88 59 -162 87t-178 42zM524 797q-137 0 -232 -105.5t-95 -257.5q0 -147 93 -252.5t224 -105.5q133 0 223 107.5t90 262.5q0 152 -86 251.5t-217 99.5z" />
    <glyph glyph-name="uni2206" unicode="&#x2206;" horiz-adv-x="1366" 
d="M61 0l553 1366h136l555 -1366h-1244zM244 119h878l-440 1093z" />
    <glyph glyph-name="product" unicode="&#x220f;" horiz-adv-x="1417" 
d="M74 1536h1269v-117h-161v-1812h161v-119h-456v119h168v1812h-695v-1812h168v-119h-454v119h159v1812h-159v117z" />
    <glyph glyph-name="summation" unicode="&#x2211;" horiz-adv-x="1366" 
d="M1214 1536v-459h-114l-13 340h-886l518 -864l-518 -946h907l6 336h121v-455h-1176v135l510 930l-510 854v129h1155z" />
    <glyph glyph-name="minus" unicode="&#x2212;" 
d="M88 641v109h942v-109h-942z" />
    <glyph glyph-name="radical" unicode="&#x221a;" horiz-adv-x="1366" 
d="M1366 1696v-119h-410l-460 -1577h-152l-178 623h-166v118h268l84 -280q2 -12 10 -37l13 -54l25.5 -117t15.5 -73h8q10 41 10 43l68 266l59 218l60 196l229 793h516z" />
    <glyph glyph-name="infinity" unicode="&#x221e;" horiz-adv-x="1366" 
d="M686 610q-154 -225 -342 -225q-135 0 -220 87t-85 226q0 135 87 222.5t220 87.5q186 0 336 -226q78 119 160 172.5t182 53.5q133 0 218 -88.5t85 -225.5q0 -135 -85 -222t-218 -87q-193 0 -338 225zM748 696q70 -111 130 -156.5t134 -45.5q82 0 136 57t54 145t-54 145.5
t-138 57.5q-74 0 -131 -44t-131 -159zM618 696q-4 8 -10 19q-23 35 -55 76q-90 109 -199 108q-82 0 -136 -57.5t-54 -145.5t54 -145t138 -57q74 0 133 45.5t129 156.5z" />
    <glyph glyph-name="integral" unicode="&#x222b;" horiz-adv-x="1024" 
d="M215 -489l31 112q51 -23 86 -22q94 0 110 88q6 29 7 155v1313q0 178 18 242q20 66 76.5 101.5t138.5 35.5q57 0 127 -23l-29 -112q-49 20 -88 20q-94 0 -110 -88q-6 -37 -7 -205v-1261q0 -141 -7 -193.5t-29 -87.5q-57 -96 -215 -96q-60 1 -109 21z" />
    <glyph glyph-name="approxequal" unicode="&#x2248;" horiz-adv-x="1024" 
d="M98 711l-78 51q57 117 123 171t152 54q78 0 233 -74q143 -70 203 -69.5t101.5 33t91.5 114.5l80 -47q-113 -221 -289 -221q-45 0 -96.5 18.5t-188.5 81.5q-92 43 -143 43q-105 1 -189 -155zM98 385l-78 49q106 225 275 225q78 0 233 -73q141 -70 203 -70q59 0 101 32
t92 116l80 -46q-117 -223 -289 -223q-43 0 -97.5 18.5t-187.5 82.5q-92 43 -143 43q-105 0 -189 -154z" />
    <glyph glyph-name="notequal" unicode="&#x2260;" horiz-adv-x="1024" 
d="M561 901l113 234l90 -35l-96 -199h288v-113h-342l-94 -200h436v-113h-487l-115 -242l-90 33l96 209h-292v113h346l94 200h-440v113h493z" />
    <glyph glyph-name="lessequal" unicode="&#x2264;" horiz-adv-x="1024" 
d="M954 1225v-121l-751 -332l751 -330v-120l-886 393v112zM954 262v-119h-886v119h886z" />
    <glyph glyph-name="greaterequal" unicode="&#x2265;" horiz-adv-x="1024" 
d="M68 322v120l751 332l-751 330v121l886 -398v-112zM68 143v119h886v-119h-886z" />
    <glyph glyph-name="lozenge" unicode="&#x25ca;" horiz-adv-x="1366" 
d="M684 1419l530 -735l-530 -737l-532 737zM684 1237l-403 -553l403 -555l403 555z" />
    <glyph glyph-name="uniE105" unicode="&#xe105;" horiz-adv-x="729" 
d="M428 1366v-735h113v-84h-320v84h111v655h-164v80h260z" />
    <glyph glyph-name="uniE107" unicode="&#xe107;" horiz-adv-x="729" 
d="M528 754h97v-207h-557v80l370 340q90 82 90 155.5t-52 123.5t-128 50q-102 0 -155 -86q-23 -39 -25 -110h-94q2 111 51 176q39 49 100.5 78.5t126.5 29.5q115 0 195 -75.5t80 -184.5q0 -61 -28 -110t-101 -115l-295 -268h325v123z" />
    <glyph glyph-name="uniE108" unicode="&#xe108;" horiz-adv-x="729" 
d="M72 788h100q10 -82 59.5 -128t124.5 -46q78 0 132.5 52.5t54.5 126t-57.5 124t-141.5 50.5q-16 0 -33 -2l-18 -2v79h49q70 0 111 35t41 94q0 55 -38 92t-95.5 37t-94.5 -34.5t-41 -91.5h-92q4 94 68.5 152t160.5 58q94 0 160 -60t66 -148q0 -119 -103 -168
q72 -29 114 -87.5t42 -134.5q0 -106 -83 -182t-198 -76q-121 0 -199.5 71.5t-88.5 188.5z" />
    <glyph glyph-name="uniF8FF" unicode="&#xf8ff;" horiz-adv-x="1638" 
d="M72 207v1329h1288q86 0 146.5 -60.5t60.5 -146.5v-1329h-1288q-86 0 -146.5 60.5t-60.5 146.5zM620.5 793q69.5 0 106.5 38.5t37 108.5v346q0 147 -143.5 147.5t-143.5 -147.5v-346q0 -70 37 -108.5t106.5 -38.5zM819 799h111v479q0 47 32.5 47t32.5 -47v-479h111v491
q0 139 -119 140q-45 0 -55 -21v18h-113v-628zM1190 940q0 -70 37 -108.5t106.5 -38.5t106.5 38.5t37 108.5v70h-111v-64q0 -47 -33 -47t-33 47v262h160v107h-162v112h-110v-112h-37v-107h39v-268zM188 799h111v211h121v123h-121v172h137v122h-248v-628zM620.5 901
q-32.5 0 -32.5 45v332q0 47 32.5 47t32.5 -47v-332q0 -45 -32.5 -45zM1077 250q0 -70 37 -109t106.5 -39t106.5 39t37 109v24h-111v-18q0 -45 -32.5 -45t-32.5 45v80h176v260q0 147 -143.5 147t-143.5 -147v-346zM184 268q0 -166 149.5 -166t149.5 183q0 51 -24.5 93
t-110.5 101q-53 35 -53 78q0 78 39 78q37 0 37 -66v-51h110v60q0 166 -147 165q-74 0 -113 -48t-39 -134q0 -35 7.5 -59.5t39 -61.5t90.5 -75q51 -35 52 -76q0 -78 -39 -78q-37 0 -37 65v21h-111v-29zM748 250q0 -70 36.5 -109t106.5 -39t106.5 39t36.5 109v69h-110v-63
q0 -45 -33 -45t-33 45v262h160v107h-162v112h-111v-112h-36v-107h39v-268zM545 612h110v125h-110v-125zM1188 430v158q0 47 32.5 47t32.5 -47v-158h-65zM545 109h110v440h-110v-440zM1446 109h12v55l19 -43h8l18 43v-55h13v71h-17l-18 -43l-19 43h-16v-71zM1380 168h21v-59
h12v59h21v12h-54v-12z" />
    <glyph glyph-name="uniFB01" unicode="&#xfb01;" horiz-adv-x="1234" 
d="M1004 1001v-882h167v-119h-462v119h170v764h-514v-764h174v-119h-467v119h168v764h-166v118h166q-4 195 73.5 285t266.5 107v-115q-125 -14 -172.5 -74.5t-42.5 -202.5h639zM1004 1366v-199h-125v199h125z" />
    <glyph glyph-name="uniFB02" unicode="&#xfb02;" horiz-adv-x="1234" 
d="M1004 1366v-1247h167v-119h-471v119h179v1128h-99q-195 0 -241 -10q-127 -29 -160 -109q-12 -31 -14 -127h215v-118h-215v-764h174v-119h-467v119h168v764h-166v118h166q4 104 13 146.5t38 81.5q80 111 276 133q41 4 246 4h191z" />
  </font>
</defs>
</svg>
